# Object Export From Tinkercad Server 2015

mtllib obj.mtl

o obj_0
v 149.2607 		-11.6715 		6.399
v 149.2607 		-17.1285 		6.399
v 152.55 		-18.7 		3.2
v 96.0367 		-18.838 		3.003
v 128.15 		-21.328 		0.32
v 128.15 		-21.328 		0
v 152.55 		-10.1 		3.2
v 96.076 		-18.864 		2.8687
v 151.873 		-18.99 		1.659
v 129.4063 		-19 		1.3663
v 129.4063 		-19 		0.32
v 151.7826 		-19 		1.3663
v 151.843 		-18.996 		1.4834
v 113.75 		-10.1 		3.2
v 128.656 		-17.001 		3.2
v 128.956 		-16.391 		3.2
v 129.5928 		-18.7869 		3.2
v 129.5883 		-18.792 		3.185
v 129.175 		-15.747 		3.2
v 129.308 		-15.079 		3.2
v 129.5481 		-18.838 		3.003
v 129.353 		-14.4 		3.2
v 129.5113 		-18.88 		2.786
v 129.308 		-13.721 		3.2
v 129.479 		-18.917 		2.539
v 129.4518 		-18.948 		2.265
v 129.175 		-13.053 		3.2
v 128.956 		-12.409 		3.2
v 129.4299 		-18.973 		1.971
v 128.656 		-11.799 		3.2
v 129.4151 		-18.99 		1.659
v 128.277 		-11.233 		3.2
v 127.829 		-10.721 		3.2
v 123.106 		-6.468 		0
v 129.1 		-19.35 		0.32
v 124.15 		-6.4 		0
v 125.194 		-6.468 		0
v 126.221 		-6.673 		0
v 127.211 		-7.009 		0
v 127.317 		-10.273 		3.2
v 121.089 		-7.009 		0
v 122.079 		-6.673 		0
v 128.15 		-7.472 		0
v 129.02 		-8.053 		0
v 151.7697 		-9.8 		0.32
v 152.542 		-10.2139 		3.185
v 152.5369 		-10.2063 		3.2
v 119.28 		-8.053 		0
v 120.15 		-7.472 		0
v 129.1 		-19.35 		3.2
v 152.444 		-10.102 		3.2
v 152.4417 		-10.1 		3.2
v 152.536 		-10.205 		3.2
v 152.3403 		-10.0131 		3.2
v 152.588 		-10.282 		3.003
v 152.63 		-10.3533 		2.786
v 152.613 		-10.319 		2.8738
v 152.667 		-10.4279 		2.539
v 152.698 		-10.5113 		2.265
v 152.674 		-10.442 		2.4771
v 120.983 		-10.273 		3.2
v 120.471 		-10.721 		3.2
v 120.023 		-11.233 		3.2
v 119.645 		-11.799 		3.2
v 128.411 		-19.953 		0.32
v 119.344 		-12.409 		3.2
v 128.411 		-19.953 		3.2
v 119.125 		-13.053 		3.2
v 127.65 		-20.462 		0.32
v 118.992 		-13.721 		3.2
v 118.948 		-14.4 		3.2
v 118.992 		-15.079 		3.2
v 127.65 		-20.462 		3.2
v 119.125 		-15.747 		3.2
v 126.829 		-20.867 		0.32
v 119.344 		-16.391 		3.2
v 134.55 		-10.1 		3.2
v 119.645 		-17.001 		3.2
v 126.829 		-20.867 		3.2
v 126.753 		-20.8928 		0.32
v 152.339 		-10.012 		3.1967
v 152.3329 		-10.008 		3.185
v 126.753 		-20.8928 		3.2
v 124.15 		-19.603 		0.318
v 124.829 		-19.558 		0.318
v 124.829 		-19.558 		0
v 124.15 		-19.603 		0
v 125.497 		-19.425 		0.318
v 125.497 		-19.425 		0
v 126.141 		-19.206 		0.318
v 126.141 		-19.206 		0
v 125.194 		-22.332 		0
v 126.751 		-18.905 		0.318
v 124.15 		-22.4 		0
v 123.106 		-22.332 		0
v 126.751 		-18.905 		0
v 126.221 		-22.127 		0
v 152.2633 		-9.962 		3.003
v 126.753 		-18.9037 		0.318
v 152.224 		-9.936 		2.8687
v 127.211 		-21.791 		0
v 152.723 		-10.592 		1.971
v 152.719 		-10.572 		2.018
v 127.317 		-18.527 		3.2
v 127.317 		-18.527 		0
v 122.079 		-22.127 		0
v 126.753 		-18.9037 		3.2
v 121.089 		-21.791 		0
v 126.753 		-21.9464 		0.32
v 127.211 		-21.791 		0.32
v 121.089 		-21.791 		0.32
v 121.548 		-21.9468 		0.32
v 127.829 		-18.079 		3.2
v 127.829 		-18.079 		0
v 124.15 		-22.4 		0.318
v 123.106 		-22.332 		0.318
v 152.74 		-10.677 		1.659
v 126.753 		-21.9464 		0.318
v 126.221 		-22.127 		0.318
v 128.277 		-17.567 		3.2
v 128.277 		-17.567 		0
v 126.753 		-19.603 		0.318
v 125.194 		-22.332 		0.318
v 152.75 		-10.7679 		1.3663
v 152.746 		-10.707 		1.4834
v 95.75 		-18.7 		3.2
v 123.471 		-19.558 		0.318
v 123.471 		-19.558 		0
v 95.8583 		-18.7 		3.2
v 122.079 		-22.127 		0.318
v 121.548 		-21.9468 		0.318
v 113.75 		-18.7 		3.2
v 110.4607 		-17.1285 		6.399
v 99.0393 		-17.1285 		6.399
v 94.55 		-19.0301 		0
v 94.55 		-19.0301 		0.32
v 94.55 		-9.7828 		0.32
v 94.55 		-9.7828 		0
v 95.55 		-10.7808 		1.3663
v 119.28 		-20.747 		0.32
v 120.15 		-21.328 		0.32
v 120.15 		-21.328 		0
v 119.28 		-20.747 		0
v 95.55 		-18.0321 		1.3663
v 118.443 		-20 		0.32
v 95.55 		-10.7808 		0.32
v 118.493 		-20.057 		0.32
v 121.548 		-20.8931 		0.32
v 121.471 		-20.867 		0.32
v 95.55 		-18.0321 		0.32
v 118.493 		-20.057 		0
v 118.443 		-20 		0
v 121.548 		-20.8931 		3.2
v 121.471 		-20.867 		3.2
v 118.7072 		-18.7869 		3.2
v 120.023 		-17.567 		3.2
v 120.471 		-18.079 		3.2
v 120.983 		-18.527 		3.2
v 121.548 		-18.9043 		3.2
v 96.5303 		-19 		1.3663
v 119.2 		-19.35 		3.2
v 119.889 		-19.953 		3.2
v 120.65 		-20.462 		3.2
v 96.5303 		-19 		0.32
v 120.65 		-20.462 		0.32
v 129.857 		-8.8 		0
v 129.807 		-8.743 		0
v 129.857 		-8.8 		0.32
v 129.807 		-8.743 		0.32
v 96.5174 		-9.8 		1.3663
v 119.889 		-19.953 		0.32
v 96.5174 		-9.8 		0.32
v 128.656 		-17.001 		0
v 95.7631 		-10.2097 		3.2
v 95.762 		-10.211 		3.1967
v 95.758 		-10.217 		3.185
v 128.956 		-16.391 		0
v 129.175 		-15.747 		0
v 129.308 		-15.079 		0
v 129.353 		-14.4 		0
v 129.308 		-13.721 		0
v 129.175 		-13.053 		0
v 128.956 		-12.409 		0
v 151.843 		-18.996 		0.32
v 95.852 		-10.106 		3.2
v 151.7826 		-19 		0.32
v 128.656 		-11.799 		0
v 95.8588 		-10.1 		3.2
v 128.277 		-11.233 		0
v 153.719 		-19.216 		0.32
v 153.746 		-19.079 		0.32
v 153.75 		-19.0172 		0.32
v 127.829 		-10.721 		0
v 95.712 		-10.2857 		3.003
v 152.75 		-18.0192 		0.32
v 127.317 		-10.273 		0
v 126.751 		-9.895 		0
v 126.141 		-9.594 		0
v 125.497 		-9.375 		0
v 119.2 		-19.35 		0.32
v 124.829 		-9.242 		0
v 124.15 		-9.198 		0
v 118.8937 		-19 		1.3663
v 123.471 		-9.242 		0
v 118.8937 		-19 		0.32
v 118.7887 		-18.88 		2.786
v 118.821 		-18.917 		2.539
v 118.8482 		-18.948 		2.265
v 118.8701 		-18.973 		1.971
v 118.8849 		-18.99 		1.659
v 95.685 		-10.326 		2.8635
v 95.67 		-10.3573 		2.786
v 118.7116 		-18.792 		3.185
v 95.633 		-10.4343 		2.539
v 128.411 		-8.847 		0.32
v 118.7519 		-18.838 		3.003
v 95.625 		-10.451 		2.4683
v 95.602 		-10.52 		2.265
v 118.443 		-8.8 		0
v 152.5369 		-18.5903 		3.2
v 152.538 		-18.589 		3.1967
v 152.542 		-18.583 		3.185
v 118.493 		-8.743 		0
v 129.1 		-9.45 		0.32
v 152.746 		-18.081 		0.32
v 152.719 		-18.217 		0.32
v 152.448 		-18.694 		3.2
v 129.4063 		-9.8 		1.3663
v 122.804 		-9.375 		0
v 129.4063 		-9.8 		0.32
v 96.427 		-9.81 		1.659
v 152.4412 		-18.7 		3.2
v 152.675 		-18.349 		0.32
v 122.159 		-9.594 		0
v 129.5113 		-9.92 		2.786
v 152.615 		-18.474 		0.32
v 121.549 		-9.895 		0
v 152.588 		-18.5143 		3.003
v 129.479 		-9.883 		2.539
v 96.457 		-9.804 		1.4834
v 152.538 		-18.589 		0.32
v 120.983 		-10.273 		0
v 152.615 		-18.474 		2.8635
v 129.4518 		-9.852 		2.265
v 152.63 		-18.4428 		2.786
v 152.448 		-18.694 		0.32
v 120.471 		-10.721 		0
v 152.667 		-18.3657 		2.539
v 152.345 		-18.785 		0.32
v 120.023 		-11.233 		0
v 152.675 		-18.349 		2.4683
v 129.4299 		-9.827 		1.971
v 152.698 		-18.28 		2.265
v 119.645 		-11.799 		0
v 129.4151 		-9.81 		1.659
v 119.344 		-12.409 		0
v 119.125 		-13.053 		0
v 152.231 		-18.863 		0.32
v 96.457 		-9.804 		0.32
v 118.992 		-13.721 		0
v 152.108 		-18.924 		0.32
v 118.948 		-14.4 		0
v 120.023 		-17.567 		0
v 151.978 		-18.969 		0.32
v 118.992 		-15.079 		0
v 120.471 		-18.079 		0
v 119.125 		-15.747 		0
v 120.983 		-18.527 		0
v 119.344 		-16.391 		0
v 121.548 		-18.9043 		0.318
v 121.549 		-18.905 		0.318
v 121.549 		-18.905 		0
v 119.645 		-17.001 		0
v 153.614 		-19.473 		0.32
v 153.675 		-19.348 		0.32
v 122.159 		-19.206 		0.318
v 122.159 		-19.206 		0
v 152.7801 		-20 		0.32
v 152.841 		-19.996 		0.32
v 152.976 		-19.969 		0.32
v 153.106 		-19.924 		0.32
v 153.23 		-19.862 		0.32
v 153.344 		-19.785 		0.32
v 153.447 		-19.693 		0.32
v 153.538 		-19.588 		0.32
v 152.719 		-18.217 		2.018
v 152.723 		-18.1969 		1.971
v 122.804 		-19.425 		0.318
v 122.804 		-19.425 		0
v 153.75 		-9.7699 		0.32
v 153.746 		-9.709 		0.32
v 153.719 		-9.574 		0.32
v 153.674 		-9.444 		0.32
v 153.612 		-9.32 		0.32
v 153.338 		-9.012 		0.32
v 153.223 		-8.936 		0.32
v 153.098 		-8.875 		0.32
v 152.966 		-8.831 		0.32
v 152.829 		-8.804 		0.32
v 152.7672 		-8.8 		0.32
v 152.74 		-18.1112 		1.659
v 152.746 		-18.081 		1.4834
v 152.75 		-18.0192 		1.3663
v 153.535 		-9.206 		0.32
v 153.443 		-9.103 		0.32
v 129.857 		-20 		0
v 129.807 		-20.057 		0
v 129.02 		-20.747 		0
v 152.75 		-10.7679 		0.32
v 134.55 		-18.7 		3.2
v 137.8393 		-17.1285 		6.399
v 137.8393 		-11.6715 		6.399
v 152.3423 		-18.7869 		3.2
v 152.345 		-18.785 		3.2
v 95.581 		-10.583 		2.018
v 95.577 		-10.6031 		1.971
v 152.613 		-10.319 		0.32
v 95.56 		-10.6888 		1.659
v 152.674 		-10.442 		0.32
v 152.719 		-10.572 		0.32
v 95.554 		-10.719 		1.4834
v 152.746 		-10.707 		0.32
v 152.3348 		-18.792 		3.185
v 152.339 		-10.012 		0.32
v 152.444 		-10.102 		0.32
v 152.536 		-10.205 		0.32
v 152.2675 		-18.838 		3.003
v 151.968 		-9.831 		0.32
v 152.099 		-9.875 		0.32
v 152.224 		-9.936 		0.32
v 151.831 		-9.804 		0.32
v 152.7801 		-20 		0
v 152.7672 		-8.8 		0
v 153.746 		-19.079 		0
v 153.75 		-19.0172 		0
v 153.719 		-19.216 		0
v 153.675 		-19.348 		0
v 153.614 		-19.473 		0
v 153.538 		-19.588 		0
v 153.447 		-19.693 		0
v 153.344 		-19.785 		0
v 152.231 		-18.863 		2.8738
v 153.23 		-19.862 		0
v 153.106 		-19.924 		0
v 152.976 		-19.969 		0
v 152.841 		-19.996 		0
v 153.612 		-9.32 		0
v 153.674 		-9.444 		0
v 153.719 		-9.574 		0
v 153.746 		-9.709 		0
v 153.75 		-9.7699 		0
v 152.829 		-8.804 		0
v 152.966 		-8.831 		0
v 127.211 		-7.009 		0.32
v 126.221 		-6.673 		0.32
v 125.194 		-6.468 		0.32
v 124.15 		-6.4 		0.32
v 123.106 		-6.468 		0.32
v 153.098 		-8.875 		0
v 124.15 		-7.4 		0.32
v 153.223 		-8.936 		0
v 153.338 		-9.012 		0
v 122.079 		-6.673 		0.32
v 121.089 		-7.009 		0.32
v 153.443 		-9.103 		0
v 153.535 		-9.206 		0
v 129.5928 		-10.0131 		3.2
v 126.751 		-9.895 		3.2
v 126.141 		-9.594 		3.2
v 118.443 		-8.8 		0.32
v 125.497 		-9.375 		3.2
v 118.493 		-8.743 		0.32
v 124.829 		-9.242 		3.2
v 124.15 		-9.198 		3.2
v 129.1 		-9.45 		3.2
v 123.471 		-9.242 		3.2
v 128.411 		-8.847 		3.2
v 127.65 		-8.338 		3.2
v 126.829 		-7.933 		3.2
v 125.962 		-7.639 		3.2
v 95.758 		-18.5848 		3.185
v 110.4607 		-11.6715 		6.399
v 95.7631 		-18.5923 		3.2
v 95.9577 		-10.0131 		3.2
v 95.955 		-10.015 		3.2
v 95.856 		-18.698 		3.2
v 95.765 		-18.595 		3.2
v 152.1912 		-9.92 		2.786
v 95.712 		-18.5175 		3.003
v 152.1154 		-9.883 		2.539
v 95.67 		-18.4467 		2.786
v 95.687 		-18.481 		2.8738
v 152.099 		-9.875 		2.4683
v 152.0305 		-9.852 		2.265
v 95.633 		-18.3721 		2.539
v 95.602 		-18.2887 		2.265
v 95.626 		-18.358 		2.4771
v 151.968 		-9.831 		2.018
v 151.9477 		-9.827 		1.971
v 95.9652 		-10.008 		3.185
v 95.577 		-18.208 		1.971
v 95.581 		-18.228 		2.018
v 118.8937 		-9.8 		1.3663
v 118.8937 		-9.8 		0.32
v 95.56 		-18.123 		1.659
v 118.7887 		-9.92 		2.786
v 118.821 		-9.883 		2.539
v 95.554 		-18.093 		1.4834
v 118.8482 		-9.852 		2.265
v 118.8701 		-9.827 		1.971
v 152.1967 		-18.88 		2.786
v 125.064 		-7.46 		3.2
v 124.15 		-7.4 		3.2
v 123.236 		-7.46 		3.2
v 118.8849 		-9.81 		1.659
v 96.0325 		-9.962 		3.003
v 152.1221 		-18.917 		2.539
v 96.069 		-9.937 		2.8738
v 152.0387 		-18.948 		2.265
v 152.108 		-18.924 		2.4771
v 119.2 		-9.45 		0.32
v 118.7072 		-10.0131 		3.2
v 151.958 		-18.973 		1.971
v 151.978 		-18.969 		2.018
v 122.804 		-9.375 		3.2
v 122.159 		-9.594 		3.2
v 121.549 		-9.895 		3.2
v 119.889 		-8.847 		0.32
v 119.2 		-9.45 		3.2
v 95.554 		-10.719 		0.32
v 122.338 		-7.639 		3.2
v 121.471 		-7.933 		3.2
v 120.65 		-8.338 		3.2
v 119.889 		-8.847 		3.2
v 95.581 		-10.583 		0.32
v 95.625 		-10.451 		0.32
v 95.685 		-10.326 		0.32
v 95.762 		-10.211 		0.32
v 95.852 		-10.106 		0.32
v 95.955 		-10.015 		0.32
v 123.236 		-7.46 		0.32
v 151.8615 		-9.81 		1.659
v 95.581 		-18.228 		0.32
v 95.554 		-18.093 		0.32
v 125.064 		-7.46 		0.32
v 128.15 		-7.472 		0.32
v 151.831 		-9.804 		1.4834
v 151.7697 		-9.8 		1.3663
v 96.4386 		-18.99 		1.659
v 95.961 		-18.788 		0.32
v 95.856 		-18.698 		0.32
v 125.962 		-7.639 		0.32
v 129.02 		-8.053 		0.32
v 95.765 		-18.595 		0.32
v 96.469 		-18.996 		1.4834
v 95.687 		-18.481 		0.32
v 95.626 		-18.358 		0.32
v 126.829 		-7.933 		0.32
v 96.2613 		-9.852 		2.265
v 96.469 		-18.996 		0.32
v 96.1033 		-9.92 		2.786
v 127.65 		-8.338 		0.32
v 96.1779 		-9.883 		2.539
v 96.192 		-9.876 		2.4771
v 96.332 		-18.969 		0.32
v 96.342 		-9.827 		1.971
v 96.322 		-9.831 		2.018
v 96.322 		-9.831 		0.32
v 96.069 		-9.937 		0.32
v 129.5883 		-10.008 		3.185
v 96.201 		-18.925 		0.32
v 96.192 		-9.876 		0.32
v 96.076 		-18.864 		0.32
v 129.5481 		-9.962 		3.003
v 94.554 		-19.091 		0.32
v 94.581 		-19.226 		0.32
v 95.334 		-19.969 		0.32
v 95.471 		-19.996 		0.32
v 95.5328 		-20 		0.32
v 96.2695 		-18.948 		2.265
v 94.626 		-19.356 		0.32
v 94.688 		-19.48 		0.32
v 94.765 		-19.594 		0.32
v 94.857 		-19.697 		0.32
v 96.1088 		-18.88 		2.786
v 96.1846 		-18.917 		2.539
v 96.201 		-18.925 		2.4683
v 96.332 		-18.969 		2.018
v 96.3523 		-18.973 		1.971
v 95.75 		-10.1 		3.2
v 99.0393 		-11.6715 		6.399
v 94.962 		-19.788 		0.32
v 95.077 		-19.864 		0.32
v 95.202 		-19.925 		0.32
v 95.5199 		-8.8 		0.32
v 95.459 		-8.804 		0.32
v 95.324 		-8.831 		0.32
v 95.194 		-8.876 		0.32
v 95.07 		-8.938 		0.32
v 94.956 		-9.015 		0.32
v 95.9597 		-18.7869 		3.2
v 94.853 		-9.107 		0.32
v 94.762 		-9.212 		0.32
v 94.686 		-9.327 		0.32
v 94.625 		-9.452 		0.32
v 94.581 		-9.584 		0.32
v 94.554 		-9.721 		0.32
v 119.28 		-8.053 		0.32
v 120.15 		-7.472 		0.32
v 118.7116 		-10.008 		3.185
v 95.961 		-18.788 		3.1967
v 95.9671 		-18.792 		3.185
v 118.7519 		-9.962 		3.003
v 120.65 		-8.338 		0.32
v 121.471 		-7.933 		0.32
v 122.338 		-7.639 		0.32
v 94.581 		-19.226 		0
v 94.554 		-19.091 		0
v 95.5328 		-20 		0
v 95.471 		-19.996 		0
v 95.334 		-19.969 		0
v 94.765 		-19.594 		0
v 94.688 		-19.48 		0
v 94.626 		-19.356 		0
v 95.202 		-19.925 		0
v 95.077 		-19.864 		0
v 94.962 		-19.788 		0
v 94.857 		-19.697 		0
v 94.956 		-9.015 		0
v 95.07 		-8.938 		0
v 95.194 		-8.876 		0
v 95.324 		-8.831 		0
v 95.459 		-8.804 		0
v 95.5199 		-8.8 		0
v 94.554 		-9.721 		0
v 94.581 		-9.584 		0
v 94.625 		-9.452 		0
v 94.686 		-9.327 		0
v 94.762 		-9.212 		0
v 94.853 		-9.107 		0
v 129.857 		-20 		0.32
v 129.02 		-20.747 		0.32
v 129.807 		-20.057 		0.32
# 543 vertices

g group_0_16768282

usemtl color_16768282
s 0

f 1 	2 	3
f 1 	3 	7
f 101 	6 	5
f 4 	512 	450
f 186 	184 	12
f 19 	310 	20
f 424 	26 	423
f 27 	77 	28
f 28 	77 	30
f 38 	201 	37
f 32 	30 	367
f 39 	199 	38
f 43 	198 	39
f 36 	37 	201
f 310 	77 	22
f 24 	22 	77
f 22 	20 	310
f 42 	229 	41
f 34 	204 	42
f 41 	234 	49
f 47 	46 	53
f 10 	31 	35
f 11 	10 	35
f 17 	50 	18
f 18 	50 	21
f 23 	21 	50
f 29 	26 	50
f 23 	50 	25
f 25 	50 	26
f 50 	31 	29
f 50 	35 	31
f 61 	434 	62
f 367 	77 	54
f 65 	35 	67
f 50 	67 	35
f 64 	63 	422
f 110 	5 	75
f 69 	75 	5
f 53 	325 	51
f 52 	54 	77
f 67 	73 	69
f 67 	69 	65
f 80 	110 	75
f 55 	57 	326
f 317 	326 	57
f 72 	71 	132
f 58 	60 	317
f 319 	317 	60
f 73 	79 	75
f 73 	75 	69
f 74 	132 	76
f 220 	46 	47
f 79 	83 	80
f 79 	80 	75
f 489 	449 	209
f 71 	70 	14
f 70 	68 	14
f 14 	132 	71
f 55 	245 	57
f 84 	85 	86
f 84 	86 	87
f 51 	325 	52
f 52 	81 	54
f 85 	88 	89
f 85 	89 	86
f 52 	325 	81
f 88 	90 	91
f 88 	91 	89
f 90 	93 	96
f 90 	96 	91
f 58 	253 	60
f 94 	87 	92
f 93 	99 	96
f 96 	99 	105
f 104 	105 	99
f 104 	99 	107
f 122 	99 	93
f 122 	93 	90
f 81 	324 	82
f 59 	253 	103
f 65 	69 	542
f 5 	542 	69
f 80 	109 	110
f 99 	122 	107
f 113 	114 	105
f 113 	105 	104
f 94 	115 	116
f 94 	116 	95
f 101 	5 	110
f 97 	118 	119
f 120 	121 	114
f 120 	114 	113
f 110 	109 	118
f 97 	101 	118
f 110 	118 	101
f 119 	123 	92
f 119 	92 	97
f 117 	303 	125
f 123 	115 	94
f 123 	94 	92
f 83 	107 	122
f 15 	121 	120
f 118 	88 	119
f 119 	85 	123
f 80 	118 	109
f 116 	130 	106
f 116 	106 	95
f 130 	131 	106
f 112 	111 	131
f 111 	108 	131
f 106 	131 	108
f 127 	84 	87
f 127 	87 	128
f 134 	129 	133
f 132 	133 	129
f 126 	129 	134
f 115 	123 	84
f 53 	326 	325
f 135 	136 	138
f 137 	138 	136
f 88 	118 	90
f 122 	90 	118
f 116 	115 	84
f 127 	116 	84
f 85 	119 	88
f 85 	84 	123
f 122 	118 	80
f 122 	80 	83
f 112 	148 	111
f 148 	149 	111
f 83 	79 	107
f 141 	142 	111
f 108 	111 	142
f 104 	107 	67
f 141 	140 	143
f 141 	143 	142
f 131 	130 	288
f 50 	17 	113
f 120 	113 	17
f 120 	17 	15
f 17 	310 	15
f 73 	107 	79
f 67 	107 	73
f 67 	50 	113
f 113 	104 	67
f 144 	139 	146
f 320 	319 	103
f 149 	165 	141
f 140 	141 	165
f 141 	111 	149
f 165 	171 	140
f 117 	125 	320
f 322 	320 	125
f 53 	46 	326
f 146 	150 	144
f 143 	140 	147
f 143 	147 	151
f 145 	152 	151
f 145 	151 	147
f 112 	131 	148
f 148 	153 	154
f 148 	154 	149
f 161 	162 	157
f 102 	117 	320
f 309 	322 	124
f 125 	124 	322
f 156 	78 	155
f 76 	132 	78
f 56 	57 	245
f 245 	248 	56
f 157 	156 	155
f 159 	158 	162
f 162 	163 	159
f 163 	154 	159
f 153 	159 	154
f 158 	157 	162
f 155 	161 	157
f 171 	200 	140
f 205 	203 	164
f 147 	140 	200
f 145 	147 	200
f 154 	163 	165
f 154 	165 	149
f 59 	60 	253
f 102 	103 	253
f 253 	286 	102
f 287 	301 	102
f 44 	453 	167
f 124 	125 	303
f 169 	168 	166
f 169 	166 	167
f 163 	162 	171
f 163 	171 	165
f 403 	172 	170
f 459 	409 	467
f 179 	335 	178
f 180 	335 	179
f 169 	453 	224
f 182 	183 	335
f 174 	185 	175
f 13 	12 	184
f 195 	225 	192
f 44 	167 	193
f 225 	226 	192
f 226 	233 	192
f 246 	275 	241
f 167 	166 	193
f 198 	43 	197
f 199 	39 	198
f 205 	145 	200
f 201 	38 	199
f 197 	43 	196
f 162 	161 	200
f 162 	200 	171
f 202 	204 	36
f 189 	193 	166
f 187 	189 	166
f 367 	81 	82
f 220 	221 	46
f 34 	36 	204
f 229 	42 	204
f 201 	202 	36
f 44 	196 	43
f 474 	470 	98
f 55 	46 	238
f 183 	187 	335
f 166 	335 	187
f 196 	44 	193
f 181 	182 	335
f 222 	238 	46
f 168 	169 	224
f 238 	243 	55
f 470 	367 	82
f 248 	251 	58
f 247 	250 	219
f 222 	46 	221
f 82 	98 	470
f 219 	223 	247
f 48 	247 	223
f 209 	210 	161
f 205 	200 	203
f 377 	375 	224
f 238 	222 	241
f 222 	221 	241
f 161 	216 	206
f 377 	224 	215
f 48 	49 	242
f 233 	236 	192
f 206 	207 	161
f 208 	161 	207
f 221 	220 	227
f 236 	241 	192
f 191 	192 	241
f 190 	191 	241
f 279 	280 	249
f 278 	279 	249
f 161 	208 	209
f 161 	210 	200
f 245 	55 	243
f 240 	415 	170
f 247 	48 	242
f 200 	210 	203
f 58 	56 	248
f 259 	468 	240
f 155 	213 	161
f 253 	58 	251
f 240 	170 	259
f 256 	138 	254
f 466 	231 	468
f 258 	261 	278
f 249 	258 	278
f 257 	138 	256
f 170 	172 	259
f 161 	213 	216
f 230 	168 	224
f 261 	264 	278
f 262 	138 	260
f 227 	246 	221
f 250 	254 	219
f 263 	78 	156
f 263 	156 	157
f 263 	157 	266
f 158 	268 	266
f 158 	266 	157
f 270 	271 	272
f 270 	272 	268
f 252 	255 	375
f 230 	224 	228
f 264 	184 	278
f 268 	158 	270
f 159 	270 	158
f 184 	186 	278
f 270 	131 	271
f 190 	241 	275
f 275 	246 	274
f 159 	148 	270
f 248 	236 	251
f 248 	245 	236
f 243 	236 	245
f 244 	252 	375
f 244 	375 	239
f 239 	375 	235
f 271 	276 	277
f 271 	277 	272
f 237 	49 	234
f 242 	49 	237
f 234 	41 	229
f 281 	282 	249
f 280 	281 	249
f 246 	249 	282
f 283 	246 	282
f 284 	246 	283
f 285 	246 	284
f 274 	246 	285
f 276 	271 	131
f 238 	241 	243
f 287 	102 	286
f 185 	439 	175
f 438 	175 	439
f 276 	288 	289
f 276 	289 	277
f 265 	519 	262
f 375 	255 	224
f 228 	224 	255
f 188 	440 	439
f 185 	188 	439
f 293 	326 	292
f 292 	326 	291
f 294 	326 	293
f 291 	326 	290
f 153 	148 	159
f 121 	15 	173
f 288 	127 	289
f 128 	289 	127
f 298 	324 	297
f 297 	325 	296
f 299 	324 	298
f 16 	177 	173
f 16 	173 	15
f 288 	276 	131
f 217 	436 	218
f 435 	315 	436
f 106 	128 	95
f 117 	102 	301
f 19 	178 	177
f 19 	177 	16
f 214 	437 	217
f 214 	212 	437
f 211 	437 	212
f 20 	179 	178
f 20 	178 	19
f 303 	117 	302
f 301 	302 	117
f 179 	20 	22
f 179 	22 	180
f 194 	176 	438
f 175 	438 	176
f 211 	194 	438
f 317 	290 	326
f 305 	325 	304
f 322 	290 	320
f 24 	181 	180
f 24 	180 	22
f 288 	130 	127
f 300 	324 	299
f 296 	325 	295
f 241 	221 	246
f 131 	270 	148
f 307 	114 	306
f 227 	232 	246
f 181 	24 	182
f 27 	182 	24
f 6 	105 	308
f 194 	211 	391
f 77 	310 	311
f 77 	311 	312
f 28 	183 	182
f 28 	182 	27
f 30 	187 	183
f 30 	183 	28
f 32 	189 	187
f 32 	187 	30
f 33 	193 	189
f 33 	189 	32
f 176 	383 	175
f 193 	33 	40
f 193 	40 	196
f 54 	81 	367
f 301 	287 	226
f 286 	226 	287
f 95 	87 	94
f 196 	40 	197
f 286 	253 	233
f 251 	233 	253
f 198 	371 	199
f 243 	241 	236
f 199 	371 	201
f 201 	374 	202
f 204 	202 	376
f 374 	376 	202
f 233 	251 	236
f 319 	290 	317
f 91 	6 	101
f 302 	225 	303
f 320 	290 	319
f 172 	403 	404
f 232 	310 	314
f 301 	226 	302
f 114 	308 	105
f 173 	306 	121
f 177 	335 	173
f 114 	121 	306
f 178 	335 	177
f 308 	114 	307
f 318 	321 	144
f 304 	325 	294
f 17 	313 	310
f 139 	144 	321
f 309 	290 	322
f 45 	331 	300
f 331 	328 	300
f 330 	324 	300
f 325 	297 	324
f 326 	294 	325
f 314 	249 	232
f 86 	92 	87
f 89 	97 	86
f 91 	101 	89
f 101 	97 	89
f 295 	325 	305
f 96 	6 	91
f 96 	105 	6
f 92 	86 	97
f 313 	323 	314
f 327 	249 	323
f 315 	435 	316
f 318 	316 	435
f 430 	321 	435
f 249 	246 	232
f 108 	289 	106
f 218 	436 	315
f 142 	277 	108
f 146 	139 	430
f 321 	430 	139
f 318 	435 	321
f 328 	329 	300
f 330 	300 	329
f 192 	290 	195
f 309 	195 	290
f 391 	212 	214
f 332 	278 	306
f 316 	396 	315
f 191 	334 	335
f 191 	335 	192
f 174 	175 	383
f 190 	336 	334
f 190 	334 	191
f 190 	337 	336
f 275 	337 	190
f 274 	338 	337
f 274 	337 	275
f 152 	266 	151
f 285 	338 	274
f 160 	203 	210
f 285 	339 	338
f 284 	340 	339
f 284 	339 	285
f 212 	391 	211
f 283 	341 	340
f 283 	340 	284
f 282 	343 	341
f 282 	341 	283
f 281 	344 	343
f 281 	343 	282
f 218 	396 	217
f 280 	345 	344
f 280 	344 	281
f 342 	249 	327
f 314 	323 	249
f 279 	346 	345
f 279 	345 	280
f 332 	346 	279
f 332 	279 	278
f 266 	152 	263
f 293 	348 	347
f 293 	347 	294
f 292 	349 	348
f 292 	348 	293
f 405 	401 	318
f 291 	350 	349
f 291 	349 	292
f 351 	350 	291
f 351 	291 	290
f 299 	352 	333
f 299 	333 	300
f 298 	353 	352
f 298 	352 	299
f 277 	142 	272
f 297 	359 	353
f 297 	353 	298
f 360 	445 	356
f 357 	360 	356
f 355 	356 	445
f 296 	361 	359
f 296 	359 	297
f 272 	142 	268
f 295 	362 	361
f 295 	361 	296
f 364 	515 	363
f 516 	441 	363
f 365 	362 	295
f 128 	106 	289
f 305 	365 	295
f 357 	36 	34
f 357 	34 	358
f 268 	143 	266
f 356 	37 	36
f 356 	36 	357
f 304 	366 	365
f 304 	365 	305
f 289 	108 	277
f 355 	38 	37
f 355 	37 	356
f 366 	304 	347
f 294 	347 	304
f 354 	39 	38
f 354 	38 	355
f 87 	95 	128
f 363 	42 	41
f 363 	41 	364
f 186 	541 	278
f 143 	268 	142
f 151 	266 	143
f 363 	358 	42
f 34 	42 	358
f 333 	166 	300
f 541 	306 	278
f 214 	395 	391
f 367 	30 	77
f 214 	217 	396
f 47 	53 	7
f 7 	51 	52
f 51 	7 	53
f 401 	402 	316
f 316 	318 	401
f 3 	220 	7
f 47 	7 	220
f 389 	381 	194
f 81 	325 	324
f 33 	32 	367
f 391 	392 	194
f 369 	368 	378
f 368 	40 	378
f 377 	378 	40
f 46 	55 	326
f 378 	379 	369
f 57 	56 	317
f 56 	58 	317
f 372 	223 	219
f 372 	219 	370
f 60 	59 	319
f 59 	103 	319
f 380 	412 	373
f 374 	413 	376
f 207 	206 	486
f 396 	397 	214
f 103 	102 	320
f 227 	220 	3
f 396 	316 	402
f 232 	227 	3
f 2 	1 	312
f 2 	312 	311
f 195 	303 	225
f 218 	315 	396
f 302 	226 	225
f 132 	14 	133
f 382 	133 	14
f 176 	381 	383
f 226 	286 	233
f 176 	194 	381
f 386 	451 	129
f 385 	14 	384
f 387 	451 	386
f 231 	415 	240
f 383 	381 	387
f 389 	454 	381
f 372 	370 	421
f 422 	384 	14
f 327 	21 	342
f 188 	14 	385
f 389 	194 	392
f 395 	214 	397
f 393 	390 	330
f 390 	388 	330
f 100 	330 	388
f 511 	451 	450
f 82 	324 	98
f 313 	17 	323
f 393 	329 	394
f 395 	397 	456
f 188 	385 	440
f 98 	324 	100
f 384 	400 	385
f 440 	385 	400
f 421 	370 	404
f 398 	394 	329
f 330 	100 	324
f 328 	398 	329
f 144 	408 	318
f 405 	318 	408
f 393 	330 	329
f 485 	216 	8
f 371 	369 	379
f 379 	380 	371
f 373 	371 	380
f 413 	373 	412
f 414 	376 	413
f 374 	373 	413
f 387 	454 	451
f 415 	231 	410
f 40 	33 	377
f 403 	170 	415
f 387 	381 	454
f 400 	416 	440
f 440 	416 	418
f 68 	66 	14
f 417 	420 	258
f 261 	258 	420
f 443 	457 	402
f 66 	64 	14
f 210 	209 	449
f 402 	401 	443
f 405 	443 	401
f 449 	455 	210
f 403 	415 	421
f 404 	403 	421
f 392 	454 	389
f 457 	456 	397
f 431 	432 	426
f 426 	425 	431
f 414 	431 	376
f 396 	402 	457
f 406 	429 	407
f 264 	261 	424
f 419 	424 	261
f 407 	429 	409
f 409 	429 	410
f 9 	13 	264
f 424 	423 	264
f 9 	264 	423
f 426 	433 	427
f 427 	433 	61
f 410 	429 	415
f 429 	421 	415
f 429 	422 	62
f 63 	62 	422
f 405 	408 	443
f 429 	62 	434
f 13 	184 	264
f 444 	443 	408
f 258 	249 	342
f 150 	444 	144
f 408 	144 	444
f 342 	411 	258
f 411 	417 	258
f 420 	419 	261
f 434 	61 	433
f 433 	426 	432
f 425 	376 	431
f 422 	14 	64
f 436 	217 	437
f 23 	411 	21
f 211 	438 	437
f 204 	376 	229
f 425 	229 	376
f 229 	425 	234
f 357 	358 	360
f 397 	396 	457
f 413 	360 	441
f 413 	441 	414
f 354 	355 	458
f 452 	458 	355
f 445 	452 	355
f 228 	255 	448
f 39 	354 	43
f 446 	43 	354
f 453 	43 	446
f 412 	445 	360
f 412 	360 	413
f 458 	462 	446
f 446 	354 	458
f 398 	328 	399
f 43 	453 	44
f 454 	392 	456
f 447 	331 	448
f 45 	448 	331
f 160 	210 	455
f 392 	391 	456
f 391 	395 	456
f 380 	452 	445
f 380 	445 	412
f 399 	328 	442
f 2 	311 	232
f 3 	2 	232
f 310 	232 	311
f 453 	446 	462
f 462 	215 	453
f 169 	167 	453
f 449 	489 	465
f 379 	458 	452
f 379 	452 	380
f 338 	339 	306
f 455 	460 	160
f 160 	460 	164
f 339 	340 	306
f 332 	306 	340
f 341 	332 	340
f 337 	338 	306
f 332 	341 	343
f 332 	343 	344
f 345 	346 	344
f 332 	344 	346
f 98 	100 	474
f 306 	336 	337
f 215 	224 	453
f 164 	460 	479
f 378 	462 	458
f 378 	458 	379
f 349 	350 	348
f 351 	348 	350
f 463 	407 	464
f 418 	469 	440
f 353 	359 	335
f 362 	365 	335
f 351 	335 	365
f 361 	362 	335
f 460 	465 	479
f 351 	365 	366
f 351 	366 	347
f 472 	469 	464
f 463 	469 	461
f 464 	469 	463
f 359 	361 	335
f 464 	459 	472
f 422 	400 	384
f 136 	443 	444
f 462 	377 	215
f 377 	462 	378
f 416 	513 	418
f 136 	444 	150
f 231 	240 	468
f 476 	481 	454
f 314 	310 	313
f 467 	466 	468
f 475 	476 	454
f 136 	475 	454
f 418 	461 	469
f 19 	16 	310
f 454 	456 	136
f 459 	467 	472
f 468 	472 	467
f 456 	457 	136
f 457 	443 	136
f 471 	479 	465
f 473 	479 	471
f 450 	479 	473
f 481 	482 	454
f 478 	450 	477
f 479 	450 	478
f 451 	494 	450
f 347 	348 	351
f 352 	353 	335
f 166 	333 	335
f 367 	470 	375
f 470 	474 	375
f 235 	375 	474
f 486 	473 	487
f 486 	485 	473
f 8 	473 	485
f 368 	197 	40
f 8 	4 	450
f 369 	198 	197
f 369 	197 	368
f 333 	352 	335
f 180 	181 	335
f 306 	173 	335
f 198 	369 	371
f 335 	334 	306
f 336 	306 	334
f 21 	327 	18
f 373 	201 	371
f 449 	465 	455
f 488 	465 	489
f 342 	21 	411
f 201 	373 	374
f 488 	480 	471
f 480 	487 	471
f 335 	351 	192
f 290 	192 	351
f 460 	455 	465
f 323 	18 	327
f 488 	471 	465
f 400 	422 	510
f 471 	487 	473
f 400 	510 	416
f 417 	25 	420
f 450 	473 	8
f 406 	461 	513
f 490 	491 	188
f 491 	382 	188
f 14 	188 	382
f 451 	454 	482
f 483 	451 	482
f 484 	451 	483
f 492 	451 	484
f 493 	451 	492
f 494 	451 	493
f 477 	450 	494
f 134 	491 	126
f 490 	126 	491
f 498 	440 	497
f 411 	23 	417
f 26 	419 	25
f 467 	409 	466
f 501 	155 	132
f 410 	231 	466
f 259 	495 	468
f 495 	496 	440
f 9 	31 	13
f 418 	513 	461
f 172 	495 	259
f 407 	463 	406
f 459 	464 	407
f 16 	15 	310
f 506 	507 	438
f 507 	137 	438
f 437 	438 	137
f 436 	437 	137
f 428 	508 	421
f 223 	372 	48
f 508 	48 	372
f 508 	49 	48
f 496 	497 	440
f 129 	501 	132
f 228 	448 	230
f 230 	448 	45
f 428 	514 	508
f 372 	421 	508
f 509 	49 	508
f 502 	439 	500
f 364 	41 	49
f 364 	49 	509
f 499 	440 	498
f 513 	416 	510
f 511 	450 	512
f 501 	129 	511
f 451 	511 	129
f 512 	155 	511
f 303 	195 	124
f 124 	195 	309
f 429 	510 	422
f 429 	513 	510
f 429 	406 	513
f 509 	508 	514
f 428 	421 	434
f 434 	421 	429
f 61 	242 	237
f 515 	516 	363
f 364 	509 	515
f 514 	515 	509
f 242 	61 	62
f 242 	62 	247
f 25 	417 	23
f 433 	514 	428
f 433 	428 	434
f 247 	62 	63
f 247 	63 	250
f 250 	63 	64
f 250 	64 	254
f 432 	515 	514
f 432 	514 	433
f 254 	64 	66
f 254 	66 	256
f 358 	363 	441
f 256 	66 	68
f 256 	68 	257
f 472 	495 	469
f 431 	516 	515
f 431 	515 	432
f 441 	360 	358
f 257 	68 	70
f 257 	70 	260
f 13 	31 	12
f 260 	70 	71
f 260 	71 	262
f 431 	414 	516
f 441 	516 	414
f 468 	495 	472
f 230 	45 	168
f 300 	168 	45
f 72 	265 	262
f 72 	262 	71
f 168 	300 	166
f 74 	267 	265
f 74 	265 	72
f 146 	430 	137
f 435 	436 	137
f 430 	435 	137
f 234 	425 	426
f 505 	506 	438
f 76 	269 	267
f 76 	267 	74
f 438 	439 	505
f 504 	505 	439
f 503 	504 	439
f 427 	237 	426
f 234 	426 	237
f 78 	273 	269
f 78 	269 	76
f 500 	439 	499
f 502 	503 	439
f 469 	495 	440
f 440 	499 	439
f 237 	427 	61
f 78 	263 	273
f 239 	235 	390
f 150 	146 	136
f 136 	146 	137
f 479 	145 	164
f 390 	393 	239
f 244 	239 	394
f 521 	525 	135
f 520 	521 	135
f 519 	520 	135
f 323 	17 	18
f 517 	518 	525
f 524 	517 	525
f 524 	525 	523
f 522 	523 	525
f 526 	528 	525
f 527 	528 	526
f 522 	525 	528
f 540 	529 	530
f 540 	530 	531
f 540 	531 	532
f 540 	532 	533
f 540 	533 	534
f 312 	1 	52
f 77 	312 	52
f 7 	52 	1
f 536 	537 	219
f 537 	538 	219
f 538 	539 	219
f 539 	540 	219
f 534 	219 	540
f 535 	536 	219
f 138 	262 	135
f 138 	535 	219
f 518 	135 	525
f 135 	262 	519
f 269 	273 	519
f 479 	519 	152
f 479 	152 	145
f 27 	24 	77
f 375 	377 	33
f 31 	9 	29
f 219 	534 	370
f 476 	517 	524
f 10 	12 	31
f 475 	518 	517
f 475 	517 	476
f 186 	11 	541
f 135 	518 	475
f 135 	475 	136
f 367 	375 	33
f 478 	520 	519
f 478 	519 	479
f 477 	521 	520
f 477 	520 	478
f 477 	525 	521
f 252 	244 	399
f 78 	132 	155
f 116 	127 	130
f 494 	525 	477
f 493 	526 	525
f 493 	525 	494
f 74 	72 	132
f 492 	527 	526
f 492 	526 	493
f 484 	528 	527
f 484 	527 	492
f 483 	522 	528
f 483 	528 	484
f 160 	164 	203
f 482 	523 	522
f 482 	522 	483
f 11 	186 	10
f 12 	10 	186
f 481 	524 	523
f 481 	523 	482
f 524 	481 	476
f 540 	500 	529
f 499 	530 	529
f 499 	529 	500
f 498 	531 	530
f 498 	530 	499
f 497 	532 	531
f 497 	531 	498
f 496 	533 	532
f 496 	532 	497
f 534 	533 	496
f 534 	496 	495
f 507 	535 	138
f 507 	138 	137
f 506 	536 	535
f 506 	535 	507
f 505 	537 	536
f 505 	536 	506
f 504 	538 	537
f 504 	537 	505
f 503 	539 	538
f 503 	538 	504
f 502 	540 	539
f 502 	539 	503
f 540 	502 	500
f 219 	254 	138
f 461 	406 	463
f 260 	138 	257
f 409 	459 	407
f 519 	267 	269
f 267 	519 	265
f 273 	263 	152
f 423 	29 	9
f 410 	466 	409
f 152 	519 	273
f 11 	35 	541
f 543 	541 	35
f 474 	100 	388
f 306 	541 	543
f 306 	543 	307
f 543 	542 	308
f 543 	308 	307
f 542 	5 	6
f 542 	6 	308
f 495 	172 	370
f 172 	404 	370
f 205 	164 	145
f 495 	370 	534
f 255 	252 	442
f 126 	490 	174
f 174 	490 	185
f 423 	26 	29
f 188 	185 	490
f 174 	383 	126
f 35 	65 	542
f 542 	543 	35
f 486 	487 	207
f 488 	489 	208
f 480 	488 	208
f 387 	386 	126
f 235 	474 	388
f 501 	511 	155
f 213 	155 	512
f 129 	126 	386
f 388 	390 	235
f 216 	213 	4
f 383 	387 	126
f 133 	382 	491
f 133 	491 	134
f 512 	4 	213
f 4 	8 	216
f 206 	216 	485
f 485 	486 	206
f 208 	207 	480
f 480 	207 	487
f 447 	448 	255
f 209 	208 	489
f 393 	394 	239
f 398 	399 	244
f 394 	398 	244
f 399 	442 	252
f 442 	447 	255
f 442 	328 	447
f 331 	447 	328
f 420 	25 	419
f 26 	424 	419
# 1086 faces

 #end of obj_0

