# Object Export From Tinkercad Server 2015

mtllib obj.mtl

o obj_0
v -50.5 		61.956 		0
v -50.5 		45.956 		0
v -50.714 		45.956 		1.3168
v -52.2117 		45.9559 		1.316
v -89.199 		60.799 		2.413
v -74.2 		49.956 		2.413
v -74.2 		57.956 		2.413
v -89.199 		60.799 		1.931
v -56.297 		61.607 		2.1
v -56.297 		61.488 		2.205
v -56.297 		61.356 		2.293
v -56.297 		61.214 		2.363
v -91.001 		60.799 		2.413
v -56.297 		61.0669 		2.413
v -90.1 		60.858 		2.413
v -74.2 		56.682 		8.4
v -74.2 		56.603 		8.395
v -56.297 		61.869 		1.708
v -56.297 		61.9064 		1.598
v -74.2 		56.448 		8.364
v -56.297 		61.799 		1.85
v -74.2 		56.298 		8.313
v -56.297 		61.711 		1.981
v -74.2 		56.156 		8.243
v -91.001 		60.799 		1.931
v -90.1 		60.858 		1.931
v -50.5012 		45.956 		1.3168
v -74.2 		57.356 		8.243
v -74.2 		57.214 		8.313
v -74.2 		57.064 		8.364
v -74.2 		56.909 		8.395
v -52.2238 		61.9561 		1.3231
v -74.2 		56.83 		8.4
v -74.2 		57.951 		7.353
v -74.2 		57.956 		7.274
v -74.2 		57.92 		7.508
v -95.408 		61.92 		1.558
v -74.2 		57.869 		7.658
v -50.7165 		61.956 		1.324
v -74.2 		57.799 		7.8
v -74.2 		57.711 		7.931
v -74.2 		57.606 		8.05
v -74.2 		57.487 		8.155
v -74.2 		56.025 		8.155
v -74.2 		52.318 		6.7447
v -74.2 		52.318 		7.5139
v -50.5032 		61.956 		1.324
v -50.5033 		61.9535 		1.3638
v -50.5012 		59.5315 		1.3342
v -66.2 		52.318 		6.7447
v -66.2 		52.318 		7.5139
v -74.2 		51.971 		5.861
v -74.2 		51.954 		5.6
v -74.2 		52.022 		6.118
v -74.2 		52.106 		4.833
v -74.2 		52.022 		5.081
v -74.2 		51.971 		5.338
v -74.2 		52.106 		6.366
v -74.2 		52.222 		6.601
v -50.5012 		45.9572 		1.3342
v -61.903 		61.0669 		2.413
v -61.903 		46.8461 		2.413
v -66.2 		57.956 		2.413
v -66.2 		49.956 		2.413
v -51.4538 		61.0669 		2.413
v -66.2 		51.971 		5.861
v -66.2 		51.954 		5.6
v -108.298 		61.607 		2.1
v -66.2 		52.022 		6.118
v -108.298 		61.488 		2.205
v -108.298 		61.356 		2.293
v -66.2 		52.106 		4.833
v -108.298 		61.214 		2.363
v -66.2 		52.022 		5.081
v -66.2 		51.971 		5.338
v -108.298 		61.0669 		2.413
v -51.4538 		46.8461 		2.413
v -66.2 		52.106 		6.366
v -66.2 		52.222 		6.601
v -66.2 		52.269 		7.658
v -66.2 		52.199 		7.8
v -108.298 		61.9064 		1.598
v -56.297 		46.8461 		2.413
v -66.2 		52.111 		7.931
v -108.298 		61.869 		1.708
v -66.2 		52.006 		8.05
v -108.298 		61.799 		1.85
v -108.298 		61.711 		1.981
v -61.903 		61.9064 		1.598
v -56.297 		46.0066 		1.598
v -74.2 		52.269 		7.658
v -74.2 		52.199 		7.8
v -74.2 		52.111 		7.931
v -74.2 		52.006 		8.05
v -66.2 		51.003 		8.395
v -66.2 		51.082 		8.4
v -66.2 		50.848 		8.364
v -66.2 		50.698 		8.313
v -66.2 		50.556 		8.243
v -61.903 		46.0066 		1.598
v -66.2 		51.756 		8.243
v -66.2 		51.614 		8.313
v -66.2 		51.464 		8.364
v -66.2 		51.309 		8.395
v -66.2 		51.23 		8.4
v -66.2 		51.887 		8.155
v -66.2 		50.425 		8.155
v -66.2 		50.306 		8.05
v -66.2 		50.201 		7.931
v -66.2 		50.113 		7.8
v -66.2 		50.043 		7.658
v -93.551 		59.934 		1.931
v -93.551 		59.934 		2.413
v -66.2 		49.992 		7.508
v -92.741 		60.333 		1.931
v -92.741 		60.333 		2.413
v -66.2 		49.961 		7.353
v -91.886 		60.623 		1.931
v -91.886 		60.623 		2.413
v -66.2 		49.956 		7.274
v -88.314 		60.623 		1.931
v -88.314 		60.623 		2.413
v -87.459 		60.333 		1.931
v -87.459 		60.333 		2.413
v -86.649 		59.934 		1.931
v -86.649 		59.934 		2.413
v -108.298 		46.306 		2.1
v -108.298 		46.425 		2.205
v -108.298 		46.557 		2.293
v -108.298 		46.699 		2.363
v -108.298 		46.8461 		2.413
v -108.298 		46.0066 		1.598
v -61.903 		61.607 		2.1
v -61.903 		61.488 		2.205
v -61.903 		61.356 		2.293
v -61.903 		61.214 		2.363
v -108.298 		46.044 		1.708
v -108.298 		46.114 		1.85
v -61.903 		61.869 		1.708
v -61.903 		61.799 		1.85
v -61.903 		61.711 		1.981
v -108.298 		46.202 		1.981
v -119.325 		46.306 		2.1
v -119.197 		46.425 		2.205
v -119.056 		46.557 		2.293
v -61.903 		46.699 		2.363
v -61.903 		46.557 		2.293
v -61.903 		46.425 		2.205
v -61.903 		46.306 		2.1
v -118.904 		46.699 		2.363
v -118.7462 		46.8461 		2.413
v -61.903 		46.202 		1.981
v -61.903 		46.114 		1.85
v -61.903 		46.044 		1.708
v -74.2 		51.082 		8.4
v -74.2 		51.003 		8.395
v -74.2 		50.848 		8.364
v -91.886 		47.289 		1.931
v -91.886 		47.289 		2.413
v -74.2 		50.698 		8.313
v -92.741 		47.579 		1.931
v -74.2 		50.556 		8.243
v -92.741 		47.579 		2.413
v -93.551 		47.978 		1.931
v -93.551 		47.978 		2.413
v -74.2 		51.756 		8.243
v -86.649 		47.978 		1.931
v -86.649 		47.978 		2.413
v -74.2 		51.614 		8.313
v -87.459 		47.579 		1.931
v -87.459 		47.579 		2.413
v -74.2 		51.464 		8.364
v -88.314 		47.289 		1.931
v -88.314 		47.289 		2.413
v -74.2 		51.309 		8.395
v -74.2 		51.23 		8.4
v -74.2 		51.887 		8.155
v -119.6985 		45.9575 		1.3385
v -119.694 		45.962 		1.403
v -119.661 		45.993 		1.558
v -74.2 		50.425 		8.155
v -119.606 		46.044 		1.708
v -74.2 		50.306 		8.05
v -74.2 		50.201 		7.931
v -119.531 		46.114 		1.85
v -74.2 		50.113 		7.8
v -94.302 		48.48 		1.931
v -94.302 		48.48 		2.413
v -74.2 		50.043 		7.658
v -94.981 		49.075 		1.931
v -94.981 		49.075 		2.413
v -74.2 		49.992 		7.508
v -74.2 		49.961 		7.353
v -95.576 		49.754 		1.931
v -89.264 		46.8461 		2.413
v -95.576 		49.754 		2.413
v -74.2 		49.956 		7.274
v -96.078 		50.505 		1.931
v -96.078 		50.505 		2.413
v -89.199 		47.113 		2.413
v -74.2 		55.175 		4.011
v -96.477 		51.315 		1.931
v -96.477 		51.315 		2.413
v -74.2 		54.957 		3.866
v -96.767 		52.17 		1.931
v -96.767 		52.17 		2.413
v -89.199 		47.113 		1.931
v -96.943 		53.055 		1.931
v -74.2 		54.722 		3.75
v -96.943 		53.055 		2.413
v -74.2 		54.474 		3.666
v -97.003 		53.956 		1.931
v -97.003 		53.956 		2.413
v -74.2 		54.217 		3.615
v -96.943 		54.857 		1.931
v -96.943 		54.857 		2.413
v -74.2 		53.956 		3.597
v -96.767 		55.742 		1.931
v -96.767 		55.742 		2.413
v -74.2 		53.695 		3.615
v -96.477 		56.597 		1.931
v -96.477 		56.597 		2.413
v -74.2 		53.438 		3.666
v -96.078 		57.407 		1.931
v -74.2 		53.19 		3.75
v -96.078 		57.407 		2.413
v -95.576 		58.158 		1.931
v -74.2 		52.955 		3.866
v -95.576 		58.158 		2.413
v -94.981 		58.837 		1.931
v -94.981 		58.837 		2.413
v -74.2 		52.737 		4.011
v -90.1 		47.054 		2.413
v -94.302 		59.432 		1.931
v -91.001 		47.113 		2.413
v -94.302 		59.432 		2.413
v -74.2 		52.54 		4.184
v -74.2 		52.367 		4.381
v -85.219 		49.075 		1.931
v -85.219 		49.075 		2.413
v -85.898 		48.48 		1.931
v -74.2 		52.222 		4.599
v -85.898 		48.48 		2.413
v -83.723 		56.597 		1.931
v -74.2 		55.69 		4.599
v -83.723 		56.597 		2.413
v -83.433 		55.742 		1.931
v -83.433 		55.742 		2.413
v -74.2 		55.545 		4.381
v -83.257 		54.857 		1.931
v -83.257 		54.857 		2.413
v -74.2 		55.372 		4.184
v -83.198 		53.956 		1.931
v -83.198 		53.956 		2.413
v -83.257 		53.055 		1.931
v -83.257 		53.055 		2.413
v -83.433 		52.17 		1.931
v -83.433 		52.17 		2.413
v -83.723 		51.315 		1.931
v -83.723 		51.315 		2.413
v -84.122 		50.505 		1.931
v -84.122 		50.505 		2.413
v -84.624 		49.754 		1.931
v -84.624 		49.754 		2.413
v -85.898 		59.432 		1.931
v -85.898 		59.432 		2.413
v -50.875 		46.306 		2.1
v -51.003 		46.425 		2.205
v -51.144 		46.557 		2.293
v -91.001 		47.113 		1.931
v -51.296 		46.699 		2.363
v -50.506 		45.962 		1.403
v -50.539 		45.993 		1.558
v -90.1 		47.054 		1.931
v -50.594 		46.044 		1.708
v -119.437 		46.202 		1.981
v -119.6985 		45.956 		1.3168
v -119.486 		45.956 		1.3168
v -66.2 		55.175 		4.011
v -66.2 		54.957 		3.866
v -66.2 		57.956 		7.274
v -66.2 		54.722 		3.75
v -66.2 		54.474 		3.666
v -66.2 		54.217 		3.615
v -66.2 		53.956 		3.597
v -66.2 		53.695 		3.615
v -66.2 		53.438 		3.666
v -93.36 		45.993 		1.558
v -66.2 		53.19 		3.75
v -56.297 		46.306 		2.1
v -56.297 		46.425 		2.205
v -56.297 		46.557 		2.293
v -56.297 		46.699 		2.363
v -66.2 		52.955 		3.866
v -66.2 		52.737 		4.011
v -56.297 		46.044 		1.708
v -56.297 		46.114 		1.85
v -56.297 		46.202 		1.981
v -66.2 		52.54 		4.184
v -85.219 		58.837 		2.413
v -66.2 		52.367 		4.381
v -84.624 		58.158 		2.413
v -66.2 		52.222 		4.599
v -84.122 		57.407 		2.413
v -50.875 		61.607 		2.1
v -118.0493 		61.9558 		1.3268
v -66.2 		55.69 		4.599
v -66.2 		55.545 		4.381
v -51.003 		61.488 		2.205
v -66.2 		55.372 		4.184
v -74.2 		55.594 		6.7447
v -74.2 		55.594 		7.5139
v -50.669 		46.114 		1.85
v -50.763 		46.202 		1.981
v -51.144 		61.356 		2.293
v -66.2 		55.594 		6.7447
v -66.2 		55.594 		7.5139
v -51.296 		61.214 		2.363
v -74.2 		55.89 		6.118
v -74.2 		55.941 		5.861
v -74.2 		55.959 		5.6
v -74.2 		55.941 		5.338
v -74.2 		55.89 		5.081
v -74.2 		55.806 		4.833
v -74.2 		55.69 		6.601
v -74.2 		55.806 		6.366
v -85.219 		58.837 		1.931
v -84.624 		58.158 		1.931
v -84.122 		57.407 		1.931
v -50.506 		61.951 		1.403
v -50.539 		61.92 		1.558
v -113.903 		61.607 		2.1
v -113.903 		61.488 		2.205
v -113.903 		61.356 		2.293
v -50.594 		61.869 		1.708
v -113.903 		61.214 		2.363
v -113.903 		61.0669 		2.413
v -50.669 		61.799 		1.85
v -50.763 		61.711 		1.981
v -117.3897 		45.9559 		1.316
v -113.903 		61.9064 		1.598
v -118.063 		45.9559 		1.316
v -66.2 		55.89 		6.118
v -113.903 		61.869 		1.708
v -66.2 		55.941 		5.861
v -113.903 		61.799 		1.85
v -66.2 		55.959 		5.6
v -113.903 		61.711 		1.981
v -66.2 		55.941 		5.338
v -119.7 		45.956 		0
v -66.2 		55.89 		5.081
v -66.2 		55.806 		4.833
v -66.2 		55.69 		6.601
v -66.2 		55.806 		6.366
v -66.2 		55.906 		8.05
v -66.2 		55.801 		7.931
v -66.2 		55.713 		7.8
v -66.2 		55.643 		7.658
v -113.903 		46.306 		2.1
v -117.3806 		61.9561 		1.3231
v -113.903 		46.425 		2.205
v -119.7 		61.956 		0
v -113.903 		46.557 		2.293
v -113.903 		46.699 		2.363
v -74.2 		55.906 		8.05
v -74.2 		55.801 		7.931
v -113.903 		46.8461 		2.413
v -74.2 		55.713 		7.8
v -74.2 		55.643 		7.658
v -66.2 		56.603 		8.395
v -66.2 		56.682 		8.4
v -119.6984 		61.956 		1.324
v -119.4755 		61.956 		1.324
v -66.2 		56.448 		8.364
v -66.2 		56.298 		8.313
v -66.2 		56.156 		8.243
v -66.2 		57.356 		8.243
v -66.2 		57.214 		8.313
v -113.903 		46.0066 		1.598
v -66.2 		57.064 		8.364
v -113.903 		46.044 		1.708
v -66.2 		56.909 		8.395
v -113.903 		46.114 		1.85
v -66.2 		56.83 		8.4
v -113.903 		46.202 		1.981
v -66.2 		57.951 		7.353
v -66.2 		57.92 		7.508
v -66.2 		57.869 		7.658
v -66.2 		57.799 		7.8
v -66.2 		57.711 		7.931
v -119.6984 		61.955 		1.3402
v -66.2 		57.606 		8.05
v -66.2 		57.487 		8.155
v -119.6985 		59.5416 		1.3385
v -66.2 		56.025 		8.155
v -118.7462 		61.0669 		2.413
v -119.325 		61.607 		2.1
v -119.197 		61.488 		2.205
v -119.694 		61.951 		1.403
v -119.661 		61.92 		1.558
v -119.606 		61.869 		1.708
v -119.531 		61.799 		1.85
v -119.437 		61.711 		1.981
v -119.056 		61.356 		2.293
v -118.904 		61.214 		2.363
# 405 vertices

g group_0_15277357

usemtl color_15277357
s 0

f 2 	3 	4
f 5 	15 	8
f 121 	5 	8
f 26 	328 	8
f 26 	8 	15
f 18 	335 	19
f 13 	25 	15
f 26 	15 	25
f 25 	328 	26
f 27 	3 	2
f 61 	73 	76
f 1 	32 	39
f 141 	88 	68
f 39 	32 	330
f 1 	39 	47
f 47 	48 	49
f 1 	47 	49
f 46 	50 	45
f 60 	27 	49
f 50 	46 	51
f 71 	135 	134
f 69 	52 	54
f 69 	54 	58
f 72 	55 	56
f 57 	75 	56
f 75 	57 	53
f 2 	49 	27
f 1 	49 	2
f 79 	78 	59
f 45 	50 	59
f 46 	91 	80
f 58 	59 	78
f 79 	59 	50
f 63 	64 	62
f 134 	70 	71
f 330 	49 	48
f 67 	53 	66
f 52 	66 	53
f 69 	66 	52
f 134 	68 	70
f 56 	74 	72
f 75 	74 	56
f 53 	67 	75
f 69 	58 	78
f 71 	132 	73
f 70 	132 	71
f 68 	132 	70
f 88 	132 	68
f 77 	65 	83
f 85 	37 	82
f 14 	83 	65
f 81 	92 	84
f 93 	86 	84
f 88 	87 	132
f 85 	132 	87
f 82 	132 	85
f 51 	46 	80
f 82 	341 	132
f 91 	92 	80
f 81 	80 	92
f 93 	84 	92
f 94 	86 	93
f 90 	19 	89
f 100 	90 	89
f 37 	400 	82
f 77 	271 	65
f 115 	116 	113
f 115 	113 	112
f 273 	272 	331
f 19 	331 	89
f 118 	119 	116
f 118 	116 	115
f 118 	25 	119
f 13 	119 	25
f 5 	121 	122
f 2 	340 	350
f 123 	124 	122
f 123 	122 	121
f 125 	126 	124
f 125 	124 	123
f 126 	125 	265
f 288 	273 	100
f 166 	102 	101
f 115 	259 	118
f 25 	118 	328
f 121 	8 	328
f 125 	123 	265
f 328 	327 	121
f 121 	265 	123
f 176 	105 	104
f 76 	73 	132
f 183 	108 	107
f 183 	109 	108
f 127 	128 	132
f 128 	129 	132
f 129 	130 	132
f 131 	132 	130
f 155 	95 	96
f 95 	157 	97
f 157 	98 	97
f 102 	166 	169
f 135 	136 	89
f 61 	89 	136
f 169 	103 	102
f 288 	137 	132
f 141 	133 	89
f 89 	139 	141
f 134 	89 	133
f 140 	141 	139
f 134 	135 	89
f 166 	101 	106
f 99 	181 	107
f 181 	183 	107
f 138 	142 	137
f 132 	137 	142
f 132 	142 	127
f 148 	149 	89
f 149 	152 	89
f 146 	147 	89
f 146 	89 	62
f 110 	109 	186
f 110 	186 	111
f 379 	180 	132
f 100 	89 	154
f 154 	89 	153
f 152 	153 	89
f 147 	148 	89
f 189 	114 	111
f 62 	89 	61
f 197 	120 	193
f 341 	379 	132
f 95 	155 	156
f 156 	157 	95
f 318 	271 	315
f 98 	160 	99
f 103 	169 	172
f 172 	104 	103
f 37 	139 	89
f 331 	37 	89
f 86 	94 	106
f 126 	61 	124
f 177 	166 	106
f 122 	61 	5
f 99 	162 	181
f 61 	76 	15
f 109 	183 	184
f 273 	331 	275
f 61 	15 	5
f 184 	186 	109
f 313 	275 	338
f 189 	111 	186
f 76 	119 	13
f 13 	15 	76
f 117 	114 	193
f 117 	193 	120
f 98 	157 	160
f 159 	158 	161
f 159 	161 	163
f 162 	99 	160
f 163 	161 	164
f 163 	164 	165
f 144 	361 	145
f 168 	167 	170
f 168 	170 	171
f 116 	76 	113
f 145 	363 	150
f 173 	174 	171
f 173 	171 	170
f 175 	104 	172
f 68 	133 	141
f 176 	104 	175
f 119 	76 	116
f 68 	134 	133
f 177 	106 	94
f 170 	112 	173
f 167 	112 	170
f 124 	61 	122
f 76 	132 	131
f 188 	165 	187
f 164 	187 	165
f 188 	187 	190
f 188 	190 	191
f 37 	331 	330
f 192 	114 	189
f 193 	114 	192
f 191 	190 	196
f 194 	196 	190
f 300 	7 	266
f 198 	199 	196
f 198 	196 	194
f 173 	200 	174
f 202 	203 	199
f 202 	199 	198
f 302 	7 	300
f 205 	206 	203
f 205 	203 	202
f 207 	200 	173
f 208 	210 	206
f 208 	206 	205
f 113 	76 	236
f 219 	222 	76
f 210 	208 	212
f 210 	212 	213
f 215 	216 	213
f 215 	213 	212
f 173 	112 	207
f 218 	219 	216
f 218 	216 	215
f 221 	222 	219
f 221 	219 	218
f 222 	221 	226
f 224 	226 	221
f 338 	314 	313
f 200 	195 	174
f 227 	229 	226
f 227 	226 	224
f 230 	231 	229
f 230 	229 	227
f 234 	236 	231
f 234 	231 	230
f 149 	127 	152
f 234 	112 	236
f 113 	236 	112
f 240 	239 	241
f 240 	241 	243
f 269 	315 	271
f 200 	233 	195
f 167 	168 	241
f 243 	241 	168
f 233 	235 	195
f 131 	195 	235
f 154 	153 	137
f 246 	244 	247
f 246 	247 	248
f 163 	131 	159
f 163 	165 	131
f 248 	247 	250
f 248 	250 	251
f 251 	250 	253
f 251 	253 	254
f 255 	256 	254
f 255 	254 	253
f 257 	258 	256
f 257 	256 	255
f 305 	267 	314
f 259 	260 	258
f 259 	258 	257
f 261 	262 	260
f 261 	260 	259
f 330 	272 	49
f 263 	264 	262
f 263 	262 	261
f 264 	263 	240
f 239 	240 	263
f 126 	265 	266
f 146 	195 	130
f 64 	6 	62
f 131 	235 	159
f 274 	270 	233
f 305 	268 	267
f 232 	295 	228
f 158 	159 	235
f 270 	158 	235
f 295 	232 	237
f 62 	195 	146
f 233 	200 	207
f 318 	65 	271
f 171 	62 	168
f 243 	168 	6
f 274 	112 	270
f 207 	112 	274
f 195 	62 	174
f 308 	245 	249
f 308 	249 	252
f 288 	154 	137
f 174 	62 	171
f 6 	168 	62
f 128 	149 	148
f 138 	137 	153
f 60 	49 	272
f 196 	131 	191
f 131 	196 	199
f 128 	148 	147
f 330 	331 	272
f 188 	131 	165
f 188 	191 	131
f 206 	131 	203
f 6 	64 	197
f 207 	274 	233
f 178 	278 	179
f 277 	278 	178
f 288 	100 	154
f 64 	120 	197
f 210 	131 	206
f 213 	131 	210
f 180 	379 	182
f 182 	381 	185
f 153 	152 	138
f 238 	301 	237
f 235 	233 	270
f 303 	301 	242
f 7 	63 	61
f 231 	76 	229
f 72 	303 	55
f 62 	61 	63
f 236 	76 	231
f 308 	252 	310
f 229 	76 	226
f 272 	179 	340
f 204 	280 	201
f 279 	201 	280
f 6 	264 	240
f 243 	6 	240
f 280 	204 	209
f 280 	209 	282
f 10 	19 	11
f 12 	11 	19
f 211 	283 	209
f 282 	209 	283
f 214 	284 	211
f 283 	211 	284
f 19 	23 	18
f 21 	18 	23
f 9 	23 	19
f 10 	9 	19
f 284 	214 	217
f 284 	217 	285
f 14 	12 	19
f 248 	7 	246
f 220 	286 	217
f 285 	217 	286
f 19 	90 	14
f 254 	256 	6
f 223 	287 	220
f 286 	220 	287
f 287 	223 	225
f 287 	225 	289
f 260 	6 	258
f 14 	90 	83
f 228 	294 	225
f 289 	225 	294
f 6 	260 	262
f 90 	291 	292
f 294 	228 	295
f 298 	290 	90
f 90 	296 	298
f 291 	90 	290
f 297 	298 	296
f 266 	7 	126
f 237 	299 	295
f 299 	237 	301
f 292 	293 	90
f 83 	90 	293
f 304 	7 	302
f 238 	242 	301
f 242 	55 	303
f 130 	129 	146
f 246 	7 	304
f 61 	126 	7
f 281 	63 	35
f 131 	130 	195
f 9 	305 	23
f 307 	245 	308
f 251 	254 	7
f 256 	258 	6
f 264 	6 	262
f 248 	251 	7
f 7 	254 	6
f 7 	35 	63
f 344 	341 	401
f 288 	180 	179
f 272 	288 	179
f 252 	201 	310
f 201 	279 	310
f 401 	402 	344
f 9 	10 	309
f 9 	309 	305
f 309 	10 	315
f 11 	315 	10
f 312 	311 	317
f 316 	317 	311
f 27 	60 	3
f 60 	272 	3
f 11 	12 	318
f 11 	318 	315
f 318 	12 	65
f 14 	65 	12
f 296 	90 	275
f 314 	339 	305
f 275 	313 	296
f 297 	296 	313
f 327 	300 	266
f 327 	266 	265
f 309 	268 	305
f 328 	302 	300
f 328 	300 	327
f 329 	304 	302
f 329 	302 	328
f 304 	329 	246
f 244 	246 	329
f 343 	319 	320
f 290 	298 	267
f 347 	320 	321
f 267 	268 	290
f 291 	290 	268
f 190 	187 	112
f 187 	164 	112
f 164 	161 	112
f 161 	158 	112
f 347 	321 	349
f 322 	349 	321
f 147 	146 	129
f 359 	143 	385
f 269 	291 	268
f 361 	144 	359
f 143 	359 	144
f 349 	322 	323
f 309 	315 	268
f 315 	269 	268
f 363 	145 	361
f 293 	292 	271
f 271 	77 	293
f 112 	221 	218
f 112 	218 	215
f 112 	215 	212
f 112 	212 	208
f 112 	208 	205
f 112 	205 	202
f 112 	202 	198
f 112 	198 	194
f 112 	194 	190
f 353 	316 	325
f 311 	325 	316
f 342 	179 	278
f 326 	354 	325
f 4 	3 	272
f 48 	39 	330
f 47 	39 	48
f 381 	383 	185
f 230 	227 	234
f 227 	112 	234
f 224 	112 	227
f 221 	112 	224
f 112 	259 	115
f 185 	383 	276
f 276 	385 	143
f 138 	152 	142
f 239 	112 	241
f 241 	112 	167
f 349 	323 	351
f 247 	118 	250
f 244 	118 	247
f 250 	118 	253
f 158 	270 	112
f 239 	263 	112
f 263 	261 	112
f 261 	259 	112
f 257 	118 	259
f 255 	118 	257
f 253 	118 	255
f 352 	351 	324
f 323 	324 	351
f 331 	19 	335
f 334 	336 	341
f 333 	341 	332
f 336 	337 	341
f 324 	245 	307
f 338 	335 	18
f 329 	118 	244
f 328 	118 	329
f 265 	121 	327
f 353 	325 	354
f 338 	18 	21
f 23 	339 	21
f 338 	21 	339
f 341 	82 	400
f 142 	152 	127
f 343 	320 	345
f 77 	83 	293
f 340 	342 	350
f 345 	320 	347
f 339 	23 	305
f 128 	127 	149
f 147 	129 	128
f 352 	324 	307
f 346 	348 	344
f 341 	344 	348
f 341 	348 	332
f 335 	275 	331
f 335 	338 	275
f 333 	334 	341
f 326 	319 	354
f 343 	354 	319
f 339 	314 	338
f 332 	348 	397
f 333 	332 	398
f 397 	398 	332
f 278 	350 	342
f 312 	317 	369
f 398 	404 	333
f 269 	292 	291
f 269 	271 	292
f 396 	337 	336
f 199 	203 	131
f 76 	131 	213
f 76 	213 	216
f 76 	216 	219
f 226 	76 	222
f 179 	342 	340
f 37 	399 	400
f 400 	401 	341
f 136 	135 	73
f 402 	346 	344
f 358 	369 	317
f 73 	61 	136
f 402 	403 	346
f 348 	346 	403
f 297 	313 	314
f 356 	366 	357
f 350 	278 	277
f 368 	369 	357
f 356 	355 	366
f 368 	357 	366
f 358 	357 	369
f 362 	360 	1
f 355 	44 	365
f 366 	355 	365
f 32 	1 	360
f 363 	379 	364
f 361 	379 	363
f 359 	379 	361
f 364 	379 	367
f 362 	372 	373
f 330 	399 	37
f 139 	37 	85
f 87 	140 	85
f 139 	85 	140
f 87 	88 	140
f 141 	140 	88
f 306 	360 	362
f 399 	330 	360
f 32 	360 	330
f 288 	132 	180
f 297 	314 	298
f 306 	399 	360
f 135 	71 	73
f 281 	34 	386
f 386 	34 	387
f 288 	272 	273
f 273 	275 	90
f 90 	100 	273
f 373 	306 	362
f 359 	385 	379
f 383 	381 	385
f 379 	385 	381
f 314 	267 	298
f 347 	349 	281
f 362 	394 	372
f 381 	182 	379
f 307 	63 	352
f 391 	372 	394
f 353 	387 	316
f 354 	281 	353
f 316 	387 	317
f 343 	281 	354
f 358 	387 	357
f 357 	387 	356
f 356 	387 	355
f 317 	387 	358
f 44 	395 	376
f 388 	389 	355
f 387 	388 	355
f 371 	370 	377
f 378 	384 	377
f 380 	384 	378
f 382 	384 	380
f 371 	377 	384
f 150 	363 	364
f 378 	29 	380
f 367 	151 	364
f 150 	364 	151
f 390 	392 	355
f 395 	355 	392
f 376 	395 	392
f 375 	376 	392
f 392 	393 	375
f 374 	375 	377
f 393 	377 	375
f 387 	353 	386
f 382 	380 	31
f 30 	31 	380
f 384 	382 	33
f 31 	33 	382
f 281 	35 	34
f 374 	377 	370
f 389 	390 	355
f 36 	387 	34
f 387 	36 	388
f 38 	388 	36
f 345 	281 	343
f 63 	281 	349
f 351 	63 	349
f 345 	347 	281
f 352 	63 	351
f 386 	353 	281
f 388 	38 	389
f 40 	389 	38
f 41 	390 	389
f 41 	389 	40
f 390 	41 	392
f 42 	392 	41
f 74 	64 	72
f 42 	43 	393
f 42 	393 	392
f 67 	120 	75
f 74 	75 	64
f 393 	28 	377
f 43 	28 	393
f 44 	355 	395
f 370 	371 	17
f 16 	17 	371
f 385 	276 	383
f 370 	17 	374
f 20 	374 	17
f 80 	120 	51
f 178 	394 	277
f 362 	350 	394
f 277 	394 	350
f 375 	374 	22
f 20 	22 	374
f 51 	120 	50
f 22 	24 	376
f 22 	376 	375
f 98 	99 	86
f 86 	106 	98
f 84 	120 	81
f 106 	101 	98
f 376 	24 	44
f 107 	86 	99
f 84 	86 	108
f 97 	98 	102
f 102 	103 	97
f 103 	104 	97
f 104 	105 	97
f 96 	97 	105
f 378 	377 	29
f 28 	29 	377
f 379 	341 	367
f 337 	367 	341
f 101 	102 	98
f 30 	380 	29
f 64 	75 	120
f 79 	50 	120
f 81 	120 	80
f 38 	36 	325
f 96 	95 	97
f 107 	108 	86
f 109 	84 	108
f 110 	84 	109
f 111 	84 	110
f 114 	84 	111
f 117 	84 	114
f 120 	84 	117
f 34 	35 	325
f 321 	35 	322
f 78 	79 	120
f 78 	120 	69
f 66 	120 	67
f 69 	120 	66
f 280 	63 	279
f 282 	63 	280
f 310 	279 	63
f 312 	28 	311
f 283 	63 	282
f 369 	368 	28
f 369 	28 	312
f 287 	64 	286
f 28 	43 	325
f 325 	311 	28
f 289 	64 	287
f 294 	64 	289
f 295 	299 	64
f 299 	301 	64
f 294 	295 	64
f 366 	28 	368
f 365 	28 	366
f 44 	28 	365
f 367 	337 	151
f 72 	64 	303
f 337 	396 	151
f 303 	64 	301
f 33 	31 	30
f 33 	30 	29
f 29 	28 	22
f 22 	20 	29
f 20 	17 	29
f 16 	29 	17
f 33 	29 	16
f 308 	63 	307
f 310 	63 	308
f 40 	38 	325
f 41 	40 	325
f 7 	322 	35
f 319 	326 	35
f 320 	319 	35
f 321 	320 	35
f 284 	63 	283
f 42 	41 	325
f 64 	63 	285
f 285 	286 	64
f 284 	285 	63
f 1 	350 	362
f 24 	22 	28
f 44 	24 	28
f 43 	42 	325
f 306 	373 	399
f 372 	391 	373
f 399 	373 	391
f 326 	325 	35
f 323 	322 	7
f 36 	34 	325
f 397 	348 	403
f 4 	272 	340
f 197 	57 	6
f 55 	6 	56
f 54 	197 	58
f 59 	58 	197
f 46 	45 	197
f 405 	150 	396
f 59 	197 	45
f 334 	333 	404
f 336 	334 	405
f 404 	405 	334
f 336 	405 	396
f 399 	391 	394
f 94 	93 	197
f 93 	92 	197
f 91 	197 	92
f 172 	160 	175
f 169 	166 	160
f 177 	160 	166
f 176 	175 	160
f 160 	177 	162
f 157 	155 	160
f 156 	155 	157
f 176 	160 	155
f 172 	169 	160
f 143 	397 	276
f 91 	46 	197
f 54 	52 	197
f 145 	150 	404
f 151 	396 	150
f 192 	189 	94
f 189 	186 	94
f 186 	184 	94
f 184 	183 	94
f 177 	94 	183
f 181 	162 	177
f 183 	181 	177
f 193 	192 	94
f 197 	193 	94
f 399 	394 	179
f 178 	179 	394
f 52 	53 	197
f 53 	57 	197
f 56 	6 	57
f 399 	179 	400
f 180 	400 	179
f 400 	180 	401
f 182 	401 	180
f 182 	185 	402
f 182 	402 	401
f 403 	402 	276
f 185 	276 	402
f 204 	201 	7
f 403 	276 	397
f 397 	143 	398
f 144 	398 	143
f 211 	209 	7
f 209 	204 	7
f 398 	144 	404
f 145 	404 	144
f 211 	7 	214
f 405 	404 	150
f 6 	223 	220
f 225 	223 	6
f 228 	225 	6
f 6 	237 	232
f 228 	6 	232
f 242 	238 	6
f 237 	6 	238
f 324 	323 	7
f 252 	249 	7
f 245 	324 	7
f 245 	7 	249
f 201 	252 	7
f 6 	220 	217
f 214 	7 	217
f 6 	217 	7
f 55 	242 	6
f 33 	371 	384
f 16 	371 	33
f 105 	176 	96
f 155 	96 	176
f 2 	350 	1
f 4 	340 	2
# 806 faces

 #end of obj_0

