# Object Export From Tinkercad Server 2015

mtllib obj.mtl

o obj_0
v 13.0082 		55.8565 		2.413
v 1.2 		52.111 		7.931
v 17.0574 		51.765 		0
v 13.6117 		56.6439 		2.413
v 1.2 		52.199 		7.8
v 17.4665 		51.9352 		0
v -37.5542 		52.5728 		0
v 1.2 		52.006 		8.05
v -37.3498 		52.3062 		0
v 13.0081 		55.8564 		2.413
v 18.1542 		52.5728 		0
v -37.5846 		52.6125 		0
v 13.0079 		55.8561 		2.413
v 17.6832 		52.1018 		0
v 17.9498 		52.3062 		0
v 1.2 		51.887 		8.155
v 1.2 		52.318 		7.5139
v 9.2 		51.003 		8.395
v 9.2 		51.082 		8.4
v 9.2 		50.848 		8.364
v 9.2 		50.698 		8.313
v 9.2 		50.556 		8.243
v 9.2 		50.425 		8.155
v 9.2 		50.306 		8.05
v 17.6435 		52.0714 		0
v 9.2 		50.201 		7.931
v -15.601 		60.799 		1.931
v 9.2 		50.113 		7.8
v -14.7 		60.858 		1.931
v 9.2 		50.043 		7.658
v 9.2 		49.992 		7.508
v 24.525 		46.306 		2.1
v -37.0832 		52.1018 		0
v 18.1846 		52.6125 		0
v 13.6121 		56.6443 		2.413
v 18.3208 		52.7895 		0
v 24.397 		46.425 		2.205
v 9.2 		49.961 		7.353
v 14.3995 		57.2478 		2.413
v 18.491 		53.1987 		0
v 24.256 		46.557 		2.293
v 9.2 		49.956 		7.274
v -36.4078 		51.7445 		0
v -36.4574 		51.765 		0
v 14.3996 		57.2479 		2.413
v 24.104 		46.699 		2.363
v -35.7 		51.6223 		0
v -35.7608 		51.6303 		0
v 23.9462 		46.8461 		2.413
v 12.6282 		54.9398 		2.413
v 12.6282 		54.9397 		2.413
v -36.3038 		51.7024 		0
v 14.6502 		52.3062 		0
v 14.4458 		55.3392 		0
v 16.3 		51.6223 		0
v 16.3608 		51.6303 		0
v 16.9038 		51.7024 		0
v 13.9743 		53.8952 		0
v 14.0464 		53.3522 		0
v 17.0078 		51.7445 		0
v 13.9663 		53.956 		0
v 14.0885 		54.6638 		0
v 14.109 		54.7134 		0
v 14.9168 		52.1018 		0
v 13.9743 		54.0168 		0
v 14.0464 		54.5598 		0
v 15.5426 		51.765 		0
v 15.5922 		51.7445 		0
v 16.2392 		51.6303 		0
v -37.0435 		52.0714 		0
v -18.151 		59.934 		2.413
v 14.0885 		53.2482 		0
v 24.894 		45.962 		1.403
v 24.8988 		45.9572 		1.3342
v 15.6962 		51.7024 		0
v 14.109 		53.1987 		0
v -17.341 		60.333 		2.413
v 24.861 		45.993 		1.558
v 14.9565 		52.0714 		0
v -16.486 		60.623 		2.413
v 15.1335 		51.9352 		0
v 24.806 		46.044 		1.708
v 14.2792 		52.7895 		0
v 24.731 		46.114 		1.85
v 14.4154 		52.6125 		0
v -44.2985 		45.956 		1.3168
v -44.2985 		45.9575 		1.3385
v 14.4458 		52.5728 		0
v 24.8988 		45.956 		1.3168
v 18.5115 		53.2482 		0
v -44.3 		61.956 		0
v 18.5536 		53.3522 		0
v -44.3 		45.956 		0
v 14.4154 		55.2995 		0
v 14.2792 		55.1225 		0
v 18.6257 		53.8952 		0
v 18.5115 		54.6638 		0
v 24.637 		46.202 		1.981
v 18.491 		54.7134 		0
v -18.151 		59.934 		1.931
v 18.1542 		55.3392 		0
v -43.3462 		61.0669 		2.413
v -17.341 		60.333 		1.931
v 18.3208 		55.1225 		0
v 18.1846 		55.2995 		0
v -16.486 		60.623 		1.931
v 24.686 		45.956 		1.3168
v 9.2 		51.756 		8.243
v 9.2 		51.614 		8.313
v 9.2 		51.464 		8.364
v 1.2 		51.082 		8.4
v 1.2 		51.003 		8.395
v 9.2 		51.309 		8.395
v 17.9498 		55.6058 		0
v 9.2 		51.23 		8.4
v 1.2 		50.848 		8.364
v 1.2 		50.698 		8.313
v 9.2 		52.318 		7.5139
v 1.2 		50.556 		8.243
v 17.6832 		55.8102 		0
v 17.6435 		55.8406 		0
v 9.2 		52.269 		7.658
v 1.2 		50.425 		8.155
v 9.2 		52.199 		7.8
v 9.2 		52.111 		7.931
v 14.6502 		55.6058 		0
v 9.2 		52.006 		8.05
v 1.2 		50.306 		8.05
v 1.2 		50.201 		7.931
v -36.8665 		51.9352 		0
v 9.2 		51.887 		8.155
v 17.4665 		55.9768 		0
v 1.2 		50.113 		7.8
v 16.2392 		56.2817 		0
v 15.6962 		56.2096 		0
v 1.2 		50.043 		7.658
v 1.2 		49.992 		7.508
v 17.0078 		56.1675 		0
v 16.9038 		56.2096 		0
v 1.2 		49.961 		7.353
v 17.0574 		56.147 		0
v 1.2 		49.956 		7.274
v 1.2 		52.022 		6.118
v -37.3498 		55.6058 		0
v 15.5426 		56.147 		0
v -37.5542 		55.3392 		0
v 1.2 		52.106 		6.366
v 16.3608 		56.2817 		0
v -38.0257 		53.8952 		0
v 1.2 		52.222 		6.601
v -37.9536 		53.3522 		0
v 18.6257 		54.0168 		0
v 9.2 		52.022 		6.118
v 18.5536 		54.5598 		0
v 1.2 		52.318 		6.7447
v -38.0337 		53.956 		0
v -43.3462 		46.8461 		2.413
v 9.2 		52.106 		6.366
v 15.5922 		56.1675 		0
v 9.2 		52.222 		6.601
v -37.9115 		54.6638 		0
v -37.891 		54.7134 		0
v 9.2 		52.318 		6.7447
v -38.0257 		54.0168 		0
v 18.6337 		53.956 		0
v -37.9536 		54.5598 		0
v 14.9168 		55.8102 		0
v -24.448 		61.0669 		2.413
v -37.9115 		53.2482 		0
v 15.1335 		55.9768 		0
v 14.9565 		55.8406 		0
v 16.3 		56.2897 		0
v -35.7608 		56.2817 		0
v -36.3038 		56.2096 		0
v -34.9922 		56.1675 		0
v 9.2 		57.356 		8.243
v 9.2 		57.214 		8.313
v 9.2 		57.064 		8.364
v 9.2 		56.909 		8.395
v -35.0962 		56.2096 		0
v 9.2 		56.83 		8.4
v -34.9426 		56.147 		0
v 9.2 		57.956 		7.274
v 9.2 		57.951 		7.353
v 24.9 		61.956 		0
v 9.2 		57.92 		7.508
v 9.2 		57.869 		7.658
v 9.2 		57.799 		7.8
v 9.2 		57.711 		7.931
v 9.2 		57.606 		8.05
v 9.2 		57.487 		8.155
v 24.9 		45.956 		0
v -36.4574 		56.147 		0
v 9.2 		56.682 		8.4
v 9.2 		56.603 		8.395
v 9.2 		56.448 		8.364
v 9.2 		56.298 		8.313
v 9.2 		56.156 		8.243
v -35.6392 		56.2817 		0
v 9.2 		55.594 		7.5139
v -36.4078 		56.1675 		0
v 9.2 		55.906 		8.05
v 9.2 		55.801 		7.931
v 9.2 		55.713 		7.8
v 9.2 		55.643 		7.658
v 9.2 		56.025 		8.155
v 9.2 		55.89 		6.118
v 9.2 		55.594 		6.7447
v 9.2 		55.69 		6.601
v 9.2 		55.806 		6.366
v -37.0832 		55.8102 		0
v 9.2 		55.175 		4.011
v -37.5846 		55.2995 		0
v -24.448 		46.8461 		2.413
v 9.2 		54.957 		3.866
v 9.2 		54.722 		3.75
v -37.7208 		55.1225 		0
v 9.2 		54.474 		3.666
v 9.2 		54.217 		3.615
v 9.2 		53.956 		3.597
v 9.2 		53.695 		3.615
v 9.2 		53.438 		3.666
v -37.0435 		55.8406 		0
v 9.2 		53.19 		3.75
v 9.2 		52.955 		3.866
v -36.8665 		55.9768 		0
v 9.2 		52.737 		4.011
v 23.1883 		45.9559 		1.316
v -35.7 		56.2897 		0
v 9.2 		51.954 		5.6
v 9.2 		51.971 		5.861
v -39.3718 		52.9723 		2.413
v -39.3719 		52.9728 		2.413
v 9.2 		52.54 		4.184
v -38.9921 		52.0559 		2.413
v -39.3718 		52.9722 		2.413
v 9.2 		52.367 		4.381
v -34.7168 		50.2841 		2.413
v -35.7 		50.1542 		2.413
v 9.2 		52.222 		4.599
v 9.2 		52.106 		4.833
v -34.7163 		50.2842 		2.413
v 9.2 		52.022 		5.081
v -34.7162 		50.2842 		2.413
v 9.2 		51.971 		5.338
v 9.2 		55.941 		5.861
v 9.2 		55.959 		5.6
v 9.2 		55.941 		5.338
v -38.9919 		52.0556 		2.413
v 9.2 		55.89 		5.081
v 9.2 		55.806 		4.833
v -38.3881 		51.2679 		2.413
v -38.3883 		51.2681 		2.413
v 9.2 		55.69 		4.599
v -38.9918 		52.0555 		2.413
v 9.2 		55.545 		4.381
v -38.3879 		51.2677 		2.413
v 9.2 		55.372 		4.184
v -36.6838 		50.2842 		2.413
v -37.6001 		50.6639 		2.413
v -36.6832 		50.2841 		2.413
v -36.6837 		50.2842 		2.413
v -37.6004 		50.6641 		2.413
v -37.6005 		50.6642 		2.413
v 9.2 		57.956 		2.413
v -38.3883 		56.6439 		2.413
v -38.3881 		56.6441 		2.413
v -34.5335 		51.9352 		0
v -39.5018 		53.956 		2.413
v -33.8458 		52.5728 		0
v -39.3718 		54.9398 		2.413
v -38.9921 		55.8561 		2.413
v -34.3565 		52.0714 		0
v -39.3719 		54.9392 		2.413
v -39.3718 		54.9397 		2.413
v -34.3168 		52.1018 		0
v -34.0502 		52.3062 		0
v -37.6001 		57.2481 		2.413
v -33.8154 		52.6125 		0
v -38.3879 		56.6443 		2.413
v -38.9919 		55.8564 		2.413
v -38.9918 		55.8565 		2.413
v -33.6792 		52.7895 		0
v 23.1762 		61.9561 		1.3231
v -33.4885 		53.2482 		0
v -33.4464 		53.3522 		0
v -33.509 		53.1987 		0
v -37.6004 		57.2479 		2.413
v -37.6005 		57.2478 		2.413
v 24.6835 		61.956 		1.324
v 9.2 		49.956 		2.413
v -33.3743 		53.8952 		0
v -18.304 		45.956 		0
v 1.2 		61.956 		0
v -33.509 		54.7134 		0
v -33.7996 		50.6641 		2.413
v -33.4885 		54.6638 		0
v -33.7999 		50.6639 		2.413
v -34.9426 		51.765 		0
v 1.2 		57.356 		8.243
v -33.0119 		51.2679 		2.413
v -33.0121 		51.2677 		2.413
v -33.8154 		55.2995 		0
v -33.6792 		55.1225 		0
v 1.2 		57.214 		8.313
v -37.891 		53.1987 		0
v 18.2004 		50.6641 		2.413
v -33.7995 		50.6642 		2.413
v -33.8458 		55.3392 		0
v 1.2 		57.064 		8.364
v 18.2001 		50.6639 		2.413
v 1.2 		56.909 		8.395
v -35.6392 		51.6303 		0
v -33.0117 		51.2681 		2.413
v -35.0962 		51.7024 		0
v 1.2 		56.83 		8.4
v 1.2 		57.951 		7.353
v 18.2005 		50.6642 		2.413
v 1.2 		57.956 		7.274
v -32.4081 		52.0556 		2.413
v -32.4082 		52.0555 		2.413
v -34.3565 		55.8406 		0
v 1.2 		57.92 		7.508
v 1.2 		57.869 		7.658
v 18.9879 		51.2677 		2.413
v -32.0282 		52.9723 		2.413
v 18.9881 		51.2679 		2.413
v -32.0282 		52.9722 		2.413
v -34.0502 		55.6058 		0
v 1.2 		57.799 		7.8
v -34.9922 		51.7445 		0
v -32.4079 		52.0559 		2.413
v 1.2 		57.711 		7.931
v -34.3168 		55.8102 		0
v 1.2 		57.606 		8.05
v 1.2 		57.487 		8.155
v 18.9883 		51.2681 		2.413
v -32.0281 		52.9728 		2.413
v -34.5335 		55.9768 		0
v -37.7208 		52.7895 		0
v -32.4079 		55.8561 		2.413
v -32.0282 		54.9398 		2.413
v 19.5918 		52.0555 		2.413
v -32.4082 		55.8565 		2.413
v -32.4081 		55.8564 		2.413
v -33.0119 		56.6441 		2.413
v -33.0117 		56.6439 		2.413
v 19.5919 		52.0556 		2.413
v -33.4464 		54.5598 		0
v -33.3743 		54.0168 		0
v -33.7996 		57.2479 		2.413
v 19.9718 		52.9722 		2.413
v -33.7995 		57.2478 		2.413
v 19.9718 		52.9723 		2.413
v -33.0121 		56.6443 		2.413
v 19.5921 		52.0559 		2.413
v 24.8968 		61.956 		1.324
v -33.3663 		53.956 		0
v -33.7999 		57.2481 		2.413
v 24.8967 		61.9535 		1.3638
v 19.9719 		52.9728 		2.413
v -32.0282 		54.9397 		2.413
v -32.0281 		54.9392 		2.413
v 1.2 		51.23 		8.4
v 1.2 		51.309 		8.395
v 1.2 		51.464 		8.364
v 1.2 		51.614 		8.313
v 1.2 		51.756 		8.243
v 24.8988 		59.5315 		1.3342
v 17.2832 		50.2841 		2.413
v 16.3 		50.1542 		2.413
v 17.2837 		50.2842 		2.413
v -31.8992 		53.956 		2.413
v 1.2 		52.269 		7.658
v 17.2838 		50.2842 		2.413
v -36.6837 		57.6278 		2.413
v -36.6832 		57.6279 		2.413
v -34.7163 		57.6278 		2.413
v -34.7162 		57.6278 		2.413
v -34.7168 		57.6279 		2.413
v -36.6838 		57.6278 		2.413
v 15.3162 		50.2842 		2.413
v -35.7 		57.7578 		2.413
v 15.3168 		50.2841 		2.413
v 15.3163 		50.2842 		2.413
v -20.678 		50.505 		2.413
v -21.077 		51.315 		2.413
v -21.367 		52.17 		2.413
v -21.543 		53.055 		2.413
v -11.249 		47.978 		2.413
v -21.603 		53.956 		2.413
v -21.543 		54.857 		2.413
v -12.059 		47.579 		2.413
v -21.367 		55.742 		2.413
v -21.077 		56.597 		2.413
v -20.678 		57.407 		2.413
v -11.249 		47.978 		1.931
v -20.176 		58.158 		2.413
v -12.059 		47.579 		1.931
v -19.581 		58.837 		2.413
v 19.5921 		55.8561 		2.413
v 19.9718 		54.9398 		2.413
v -18.902 		59.432 		2.413
v 19.5918 		55.8565 		2.413
v 19.5919 		55.8564 		2.413
v 1.2 		56.156 		8.243
v 1.2 		56.298 		8.313
v 1.2 		56.448 		8.364
v 1.2 		56.603 		8.395
v 1.2 		56.682 		8.4
v 1.2 		55.594 		7.5139
v -18.902 		48.48 		2.413
v -19.581 		49.075 		2.413
v -20.176 		49.754 		2.413
v 1.2 		55.643 		7.658
v 1.2 		55.713 		7.8
v 1.2 		55.801 		7.931
v 23.9462 		61.0669 		2.413
v 1.2 		55.906 		8.05
v 18.2004 		57.2479 		2.413
v 18.2005 		57.2478 		2.413
v 1.2 		56.025 		8.155
v 18.9883 		56.6439 		2.413
v 1.2 		55.89 		6.118
v 18.9881 		56.6441 		2.413
v 1.2 		55.594 		6.7447
v 1.2 		55.69 		6.601
v 18.9879 		56.6443 		2.413
v 1.2 		55.806 		6.366
v 1.2 		55.175 		4.011
v 1.2 		54.957 		3.866
v 1.2 		54.722 		3.75
v 1.2 		54.474 		3.666
v 1.2 		54.217 		3.615
v 1.2 		53.956 		3.597
v 1.2 		53.695 		3.615
v 1.2 		53.438 		3.666
v 1.2 		53.19 		3.75
v 1.2 		52.955 		3.866
v 1.2 		52.737 		4.011
v 18.2001 		57.2481 		2.413
v 1.2 		51.971 		5.861
v 1.2 		51.954 		5.6
v 1.2 		52.54 		4.184
v 1.2 		52.367 		4.381
v 1.2 		52.222 		4.599
v 1.2 		52.106 		4.833
v 1.2 		52.022 		5.081
v 1.2 		51.971 		5.338
v 19.9718 		54.9397 		2.413
v 19.9719 		54.9392 		2.413
v 1.2 		55.941 		5.861
v 1.2 		55.959 		5.6
v 1.2 		55.941 		5.338
v 1.2 		55.89 		5.081
v 1.2 		55.806 		4.833
v 1.2 		55.69 		4.599
v 1.2 		55.545 		4.381
v 1.2 		55.372 		4.184
v 1.2 		57.956 		2.413
v 1.2 		49.956 		2.413
v 20.1008 		53.956 		2.413
v 15.3168 		57.6279 		2.413
v 15.3163 		57.6278 		2.413
v 17.2838 		57.6278 		2.413
v 17.2837 		57.6278 		2.413
v -14.208 		46.8461 		2.413
v 17.2832 		57.6279 		2.413
v 15.3162 		57.6278 		2.413
v 16.3 		57.7578 		2.413
v -42.6493 		61.9558 		1.3268
v -12.914 		47.289 		2.413
v -13.799 		47.113 		2.413
v -43.925 		61.607 		2.1
v -43.797 		61.488 		2.205
v -44.294 		61.951 		1.403
v -44.2984 		61.955 		1.3402
v -44.261 		61.92 		1.558
v -44.206 		61.869 		1.708
v -44.131 		61.799 		1.85
v -44.037 		61.711 		1.981
v -12.914 		47.289 		1.931
v -13.799 		47.113 		1.931
v -44.0755 		61.956 		1.324
v -44.2984 		61.956 		1.324
v -43.656 		61.356 		2.293
v -43.504 		61.214 		2.363
v -15.601 		47.113 		2.413
v -14.7 		47.054 		2.413
v -15.601 		47.113 		1.931
v -44.2985 		59.5416 		1.3385
v 24.525 		61.607 		2.1
v 24.397 		61.488 		2.205
v 24.256 		61.356 		2.293
v 24.104 		61.214 		2.363
v 24.894 		61.951 		1.403
v 24.861 		61.92 		1.558
v 24.806 		61.869 		1.708
v -14.7 		47.054 		1.931
v 24.731 		61.799 		1.85
v 24.637 		61.711 		1.981
v 9.2 		61.0669 		2.413
v 13.6119 		56.6441 		2.413
v 12.6282 		52.9723 		2.413
v 12.6281 		52.9728 		2.413
v -16.486 		47.289 		2.413
v 12.4982 		53.956 		2.413
v -17.341 		47.579 		2.413
v 12.6281 		54.9392 		2.413
v -18.151 		47.978 		2.413
v 13.0079 		52.0559 		2.413
v 12.6282 		52.9722 		2.413
v -16.486 		47.289 		1.931
v -17.341 		47.579 		1.931
v 13.0081 		52.0556 		2.413
v -18.151 		47.978 		1.931
v 13.6119 		51.2679 		2.413
v 13.6117 		51.2681 		2.413
v 13.0082 		52.0555 		2.413
v 13.6121 		51.2677 		2.413
v 14.3999 		57.2481 		2.413
v 14.3999 		50.6639 		2.413
v 14.3996 		50.6641 		2.413
v 14.3995 		50.6642 		2.413
v 8.32 		46.8461 		2.413
v -9.819 		49.075 		1.931
v -9.819 		49.075 		2.413
v -10.498 		48.48 		1.931
v -10.498 		48.48 		2.413
v -8.323 		56.597 		1.931
v -8.323 		56.597 		2.413
v -12.059 		60.333 		2.413
v -8.033 		55.742 		1.931
v -8.033 		55.742 		2.413
v -11.249 		59.934 		2.413
v -7.857 		54.857 		1.931
v -7.857 		54.857 		2.413
v -7.798 		53.956 		1.931
v -7.798 		53.956 		2.413
v -7.857 		53.055 		1.931
v -7.857 		53.055 		2.413
v -8.033 		52.17 		1.931
v -8.033 		52.17 		2.413
v -8.323 		51.315 		1.931
v -8.323 		51.315 		2.413
v -8.722 		50.505 		1.931
v -8.722 		50.505 		2.413
v -9.224 		49.754 		1.931
v -9.224 		49.754 		2.413
v -10.498 		59.432 		1.931
v -10.498 		59.432 		2.413
v -9.819 		58.837 		1.931
v -9.819 		58.837 		2.413
v -13.799 		60.799 		2.413
v -9.224 		58.158 		1.931
v -9.224 		58.158 		2.413
v -12.914 		60.623 		2.413
v -8.722 		57.407 		1.931
v -8.722 		57.407 		2.413
v -15.601 		60.799 		2.413
v -14.7 		60.858 		2.413
v -41.9897 		45.9559 		1.316
v -42.663 		45.9559 		1.316
v -44.086 		45.956 		1.3168
v -43.925 		46.306 		2.1
v -43.797 		46.425 		2.205
v -43.656 		46.557 		2.293
v -43.504 		46.699 		2.363
v -20.678 		50.505 		1.931
v -21.077 		51.315 		1.931
v -21.367 		52.17 		1.931
v -21.543 		53.055 		1.931
v -21.603 		53.956 		1.931
v -21.543 		54.857 		1.931
v -21.367 		55.742 		1.931
v -44.294 		45.962 		1.403
v -21.077 		56.597 		1.931
v -44.261 		45.993 		1.558
v -20.678 		57.407 		1.931
v -44.206 		46.044 		1.708
v -20.176 		58.158 		1.931
v -44.131 		46.114 		1.85
v -19.581 		58.837 		1.931
v -44.037 		46.202 		1.981
v -18.902 		59.432 		1.931
v -18.902 		48.48 		1.931
v -19.581 		49.075 		1.931
v -41.9806 		61.9561 		1.3231
v -20.176 		49.754 		1.931
v -12.059 		60.333 		1.931
v -11.249 		59.934 		1.931
v -13.799 		60.799 		1.931
v -12.914 		60.623 		1.931
# 593 vertices

g group_0_15277357

usemtl color_15277357
s 0

f 14 	192 	25
f 15 	192 	14
f 11 	192 	15
f 36 	192 	34
f 34 	192 	11
f 111 	18 	19
f 40 	192 	36
f 51 	66 	50
f 29 	27 	550
f 128 	24 	23
f 128 	26 	24
f 57 	192 	56
f 3 	192 	60
f 6 	192 	3
f 6 	25 	192
f 57 	60 	192
f 18 	116 	20
f 13 	50 	63
f 64 	293 	53
f 51 	509 	66
f 116 	21 	20
f 56 	192 	55
f 22 	123 	23
f 55 	192 	69
f 123 	128 	23
f 103 	77 	71
f 81 	293 	79
f 64 	79 	293
f 80 	77 	103
f 28 	26 	133
f 68 	293 	67
f 67 	293 	81
f 28 	133 	30
f 136 	31 	30
f 75 	293 	68
f 69 	192 	75
f 142 	42 	140
f 18 	111 	112
f 74 	73 	107
f 112 	116 	18
f 21 	117 	22
f 4 	1 	54
f 94 	54 	1
f 92 	192 	90
f 90 	192 	40
f 94 	1 	95
f 10 	95 	1
f 87 	491 	86
f 86 	491 	93
f 22 	119 	123
f 96 	165 	192
f 96 	192 	92
f 63 	95 	13
f 26 	128 	129
f 10 	13 	95
f 129 	133 	26
f 136 	30 	133
f 62 	50 	66
f 71 	100 	103
f 38 	31 	140
f 106 	80 	103
f 38 	140 	42
f 89 	74 	107
f 106 	27 	80
f 115 	19 	160
f 19 	18 	160
f 21 	116 	117
f 119 	22 	117
f 100 	571 	103
f 103 	571 	106
f 125 	109 	124
f 127 	109 	125
f 131 	109 	127
f 131 	108 	109
f 122 	124 	109
f 132 	185 	121
f 120 	121 	185
f 114 	120 	185
f 137 	31 	136
f 140 	31 	137
f 21 	22 	160
f 22 	23 	160
f 23 	24 	160
f 24 	26 	160
f 20 	21 	160
f 18 	20 	160
f 138 	185 	141
f 26 	28 	160
f 28 	30 	160
f 30 	31 	160
f 31 	38 	160
f 38 	42 	160
f 153 	158 	42
f 158 	160 	42
f 139 	185 	138
f 148 	185 	139
f 97 	185 	154
f 99 	185 	97
f 185 	99 	104
f 101 	185 	105
f 105 	185 	104
f 101 	114 	185
f 152 	185 	165
f 274 	164 	166
f 109 	160 	163
f 274 	269 	164
f 154 	185 	152
f 192 	165 	185
f 122 	109 	118
f 170 	171 	294
f 171 	167 	294
f 167 	126 	294
f 141 	185 	132
f 172 	185 	148
f 110 	113 	160
f 109 	110 	160
f 163 	118 	109
f 113 	115 	160
f 185 	172 	294
f 135 	294 	134
f 134 	294 	172
f 294 	135 	159
f 159 	145 	294
f 294 	145 	170
f 179 	209 	178
f 181 	209 	179
f 186 	209 	184
f 187 	209 	186
f 188 	209 	187
f 189 	209 	188
f 190 	209 	189
f 176 	209 	191
f 177 	209 	176
f 191 	209 	190
f 178 	209 	177
f 147 	158 	143
f 160 	158 	150
f 293 	75 	192
f 160 	150 	163
f 196 	209 	195
f 197 	209 	196
f 198 	209 	197
f 294 	66 	293
f 198 	200 	208
f 58 	293 	61
f 59 	293 	58
f 61 	293 	65
f 198 	202 	203
f 203 	204 	198
f 205 	198 	204
f 200 	198 	205
f 153 	231 	143
f 143 	158 	153
f 72 	293 	59
f 76 	293 	72
f 202 	198 	206
f 195 	209 	194
f 147 	150 	158
f 83 	293 	76
f 155 	163 	150
f 83 	85 	293
f 88 	293 	85
f 53 	293 	88
f 210 	207 	183
f 163 	155 	118
f 207 	246 	183
f 208 	209 	198
f 508 	510 	214
f 210 	183 	209
f 194 	209 	181
f 184 	209 	183
f 95 	294 	94
f 54 	94 	294
f 126 	54 	294
f 215 	265 	212
f 63 	294 	95
f 216 	265 	215
f 213 	282 	217
f 218 	265 	216
f 62 	294 	63
f 66 	294 	62
f 65 	293 	66
f 219 	220 	265
f 291 	265 	220
f 281 	272 	217
f 224 	291 	222
f 225 	291 	224
f 192 	107 	228
f 168 	487 	102
f 153 	42 	231
f 291 	245 	42
f 237 	291 	234
f 234 	291 	227
f 240 	291 	237
f 241 	291 	240
f 243 	291 	241
f 245 	291 	243
f 242 	238 	214
f 230 	42 	245
f 244 	242 	214
f 246 	247 	183
f 247 	248 	183
f 232 	157 	236
f 255 	249 	157
f 249 	235 	157
f 235 	236 	157
f 253 	255 	157
f 178 	177 	310
f 258 	265 	256
f 252 	253 	157
f 310 	179 	178
f 181 	179 	316
f 212 	265 	258
f 254 	256 	265
f 184 	183 	319
f 262 	259 	157
f 262 	157 	261
f 265 	183 	248
f 250 	265 	248
f 251 	265 	250
f 254 	265 	251
f 257 	157 	264
f 107 	73 	228
f 263 	157 	260
f 333 	335 	189
f 259 	260 	157
f 305 	177 	300
f 176 	300 	177
f 305 	310 	177
f 323 	186 	184
f 187 	186 	323
f 333 	189 	188
f 190 	189 	335
f 335 	191 	190
f 191 	300 	176
f 89 	107 	192
f 266 	102 	282
f 179 	310 	312
f 267 	102 	266
f 281 	282 	102
f 179 	312 	316
f 324 	187 	323
f 221 	291 	220
f 222 	291 	221
f 225 	227 	291
f 218 	219 	265
f 187 	324 	188
f 231 	42 	230
f 272 	102 	271
f 272 	281 	102
f 280 	102 	267
f 275 	271 	102
f 191 	335 	336
f 297 	342 	295
f 191 	336 	300
f 308 	214 	302
f 302 	214 	301
f 185 	284 	290
f 317 	184 	319
f 318 	6 	307
f 314 	214 	321
f 301 	214 	314
f 184 	317 	323
f 327 	15 	325
f 330 	188 	324
f 333 	188 	330
f 355 	353 	334
f 299 	293 	331
f 331 	293 	315
f 355 	334 	329
f 320 	214 	332
f 340 	93 	306
f 12 	93 	340
f 7 	93 	12
f 348 	36 	343
f 392 	394 	362
f 363 	349 	350
f 355 	168 	353
f 354 	92 	352
f 298 	214 	296
f 244 	214 	298
f 341 	304 	295
f 347 	168 	346
f 290 	357 	185
f 358 	373 	350
f 360 	369 	357
f 351 	353 	168
f 346 	168 	355
f 366 	142 	365
f 367 	142 	366
f 364 	365 	142
f 357 	369 	185
f 9 	93 	7
f 347 	344 	168
f 362 	363 	392
f 391 	392 	373
f 363 	373 	392
f 43 	93 	44
f 374 	142 	5
f 388 	389 	326
f 328 	332 	388
f 315 	293 	313
f 422 	206 	198
f 8 	2 	142
f 2 	5 	142
f 47 	313 	93
f 48 	47 	93
f 389 	391 	373
f 338 	326 	389
f 60 	57 	375
f 368 	142 	367
f 33 	93 	9
f 70 	93 	33
f 311 	3 	375
f 422 	202 	206
f 44 	93 	130
f 70 	130 	93
f 351 	168 	359
f 119 	117 	142
f 117 	116 	142
f 116 	112 	142
f 111 	142 	112
f 364 	142 	111
f 52 	93 	43
f 52 	48 	93
f 379 	359 	168
f 203 	417 	204
f 381 	102 	278
f 416 	205 	204
f 142 	140 	137
f 142 	137 	136
f 142 	136 	133
f 142 	133 	129
f 142 	129 	128
f 142 	128 	123
f 123 	119 	142
f 151 	93 	149
f 378 	379 	168
f 380 	378 	168
f 371 	69 	384
f 142 	143 	442
f 93 	91 	156
f 149 	93 	156
f 376 	102 	381
f 377 	383 	102
f 288 	102 	289
f 69 	75 	384
f 409 	408 	195
f 143 	142 	147
f 169 	93 	151
f 169 	306 	93
f 383 	380 	168
f 376 	377 	102
f 288 	278 	102
f 199 	91 	180
f 150 	142 	155
f 226 	223 	91
f 193 	226 	91
f 394 	395 	341
f 146 	91 	144
f 16 	8 	142
f 155 	142 	17
f 374 	17 	142
f 368 	16 	142
f 147 	142 	150
f 162 	91 	217
f 161 	91 	162
f 213 	217 	91
f 310 	317 	312
f 305 	317 	310
f 300 	317 	305
f 91 	223 	211
f 144 	91 	211
f 399 	393 	397
f 390 	397 	393
f 354 	361 	92
f 96 	92 	361
f 229 	91 	199
f 393 	399 	482
f 316 	312 	317
f 317 	300 	336
f 317 	336 	335
f 317 	335 	333
f 317 	333 	330
f 317 	330 	324
f 317 	324 	323
f 192 	369 	89
f 403 	168 	400
f 407 	408 	317
f 316 	317 	410
f 398 	400 	168
f 408 	409 	317
f 410 	317 	409
f 203 	202 	417
f 395 	168 	341
f 345 	341 	168
f 396 	168 	395
f 396 	398 	168
f 341 	342 	394
f 342 	362 	394
f 344 	345 	168
f 373 	338 	389
f 192 	185 	369
f 416 	204 	417
f 413 	214 	412
f 74 	89 	369
f 414 	214 	413
f 417 	319 	416
f 419 	319 	417
f 416 	319 	415
f 386 	214 	414
f 422 	317 	419
f 407 	317 	406
f 387 	214 	386
f 388 	332 	387
f 195 	194 	409
f 387 	332 	214
f 196 	195 	408
f 196 	408 	197
f 407 	197 	408
f 197 	407 	198
f 406 	198 	407
f 411 	319 	426
f 198 	406 	422
f 415 	319 	411
f 406 	317 	422
f 429 	319 	424
f 427 	426 	319
f 429 	427 	319
f 319 	419 	317
f 202 	422 	419
f 419 	417 	202
f 432 	431 	460
f 431 	430 	460
f 433 	432 	460
f 416 	415 	205
f 433 	460 	434
f 415 	200 	205
f 410 	409 	194
f 437 	461 	438
f 438 	461 	439
f 141 	441 	465
f 439 	461 	440
f 440 	461 	444
f 445 	444 	461
f 446 	445 	461
f 447 	446 	461
f 411 	200 	415
f 447 	461 	448
f 448 	461 	449
f 424 	319 	452
f 458 	460 	459
f 459 	460 	430
f 458 	457 	460
f 456 	460 	457
f 460 	456 	455
f 319 	460 	454
f 453 	319 	454
f 452 	319 	453
f 455 	454 	460
f 461 	437 	436
f 461 	436 	435
f 434 	460 	435
f 461 	435 	460
f 142 	442 	443
f 443 	449 	142
f 142 	449 	461
f 157 	568 	214
f 19 	115 	364
f 96 	361 	462
f 111 	19 	364
f 503 	126 	35
f 35 	167 	39
f 171 	39 	167
f 171 	170 	39
f 410 	194 	316
f 181 	316 	194
f 172 	470 	134
f 294 	180 	91
f 174 	91 	173
f 135 	463 	464
f 326 	328 	388
f 321 	214 	320
f 296 	214 	308
f 238 	239 	214
f 261 	157 	239
f 214 	239 	157
f 146 	213 	91
f 91 	161 	166
f 164 	156 	91
f 166 	164 	91
f 263 	264 	157
f 257 	252 	157
f 102 	157 	269
f 233 	269 	157
f 274 	102 	269
f 274 	275 	102
f 280 	289 	102
f 102 	383 	168
f 232 	233 	157
f 173 	91 	229
f 91 	174 	201
f 201 	193 	91
f 172 	148 	470
f 207 	424 	246
f 208 	426 	427
f 463 	134 	470
f 411 	426 	208
f 135 	464 	469
f 484 	476 	471
f 276 	293 	273
f 277 	293 	276
f 424 	207 	429
f 3 	311 	6
f 311 	307 	6
f 270 	293 	277
f 11 	15 	337
f 427 	209 	208
f 472 	393 	482
f 270 	279 	293
f 283 	293 	279
f 318 	25 	6
f 286 	293 	285
f 427 	429 	209
f 209 	429 	210
f 14 	325 	15
f 429 	207 	210
f 325 	14 	318
f 25 	318 	14
f 287 	293 	283
f 285 	293 	287
f 208 	200 	411
f 292 	293 	286
f 337 	15 	327
f 337 	343 	11
f 34 	11 	343
f 307 	311 	49
f 34 	343 	36
f 309 	294 	303
f 307 	49 	318
f 318 	49 	325
f 567 	41 	46
f 325 	49 	327
f 352 	40 	356
f 327 	49 	337
f 348 	356 	36
f 40 	36 	356
f 334 	322 	294
f 339 	294 	322
f 88 	518 	53
f 472 	482 	473
f 483 	473 	482
f 370 	56 	371
f 55 	371 	56
f 175 	294 	182
f 339 	182 	294
f 175 	180 	294
f 356 	348 	49
f 352 	356 	49
f 485 	477 	484
f 476 	484 	477
f 442 	231 	443
f 372 	57 	370
f 56 	370 	57
f 343 	49 	348
f 143 	231 	442
f 372 	375 	57
f 352 	49 	354
f 343 	337 	49
f 227 	440 	444
f 397 	27 	399
f 482 	399 	27
f 237 	444 	445
f 60 	375 	3
f 517 	520 	53
f 382 	68 	67
f 375 	49 	311
f 372 	49 	375
f 371 	55 	69
f 385 	384 	75
f 384 	525 	371
f 79 	524 	81
f 385 	382 	525
f 523 	522 	81
f 361 	354 	49
f 385 	75 	382
f 68 	382 	75
f 430 	212 	459
f 90 	352 	92
f 295 	294 	297
f 349 	297 	294
f 430 	431 	215
f 352 	90 	40
f 404 	418 	423
f 216 	215 	432
f 431 	432 	215
f 294 	295 	304
f 329 	294 	309
f 304 	303 	294
f 329 	334 	294
f 433 	218 	432
f 428 	418 	421
f 350 	294 	358
f 401 	99 	402
f 97 	402 	99
f 349 	294 	350
f 293 	358 	294
f 292 	358 	293
f 405 	404 	104
f 105 	104 	404
f 420 	418 	441
f 420 	421 	418
f 425 	114 	423
f 268 	293 	299
f 268 	273 	293
f 93 	313 	293
f 423 	101 	404
f 105 	404 	101
f 476 	477 	491
f 214 	568 	467
f 101 	423 	114
f 405 	418 	404
f 401 	418 	405
f 402 	418 	401
f 421 	121 	120
f 421 	120 	428
f 49 	418 	462
f 473 	483 	489
f 584 	481 	582
f 425 	423 	418
f 503 	4 	126
f 489 	499 	488
f 584 	474 	481
f 488 	490 	506
f 425 	428 	114
f 120 	114 	428
f 464 	463 	502
f 121 	421 	132
f 420 	132 	421
f 513 	490 	27
f 441 	418 	465
f 425 	418 	428
f 463 	135 	134
f 578 	479 	478
f 502 	470 	418
f 138 	465 	139
f 466 	139 	465
f 465 	138 	141
f 465 	418 	466
f 468 	418 	470
f 141 	132 	441
f 464 	502 	469
f 441 	132 	420
f 565 	474 	584
f 440 	227 	439
f 466 	418 	468
f 463 	470 	502
f 565 	566 	474
f 475 	474 	566
f 145 	521 	170
f 475 	566 	486
f 450 	418 	402
f 450 	451 	418
f 451 	462 	418
f 462 	361 	49
f 148 	139 	468
f 466 	468 	139
f 567 	568 	486
f 450 	154 	451
f 152 	451 	154
f 370 	371 	49
f 372 	370 	49
f 525 	49 	371
f 384 	385 	525
f 450 	402 	154
f 97 	154 	402
f 237 	445 	446
f 521 	145 	469
f 159 	469 	145
f 243 	241 	448
f 405 	104 	401
f 99 	401 	104
f 245 	243 	449
f 480 	582 	481
f 462 	165 	96
f 424 	452 	246
f 167 	35 	126
f 246 	452 	453
f 87 	576 	491
f 165 	462 	152
f 451 	152 	462
f 45 	39 	170
f 212 	258 	459
f 468 	470 	148
f 212 	430 	215
f 565 	32 	566
f 232 	151 	233
f 216 	432 	218
f 469 	159 	135
f 357 	290 	360
f 218 	433 	434
f 218 	434 	219
f 496 	360 	290
f 284 	496 	290
f 220 	219 	435
f 434 	435 	219
f 238 	313 	239
f 221 	220 	436
f 435 	436 	220
f 437 	222 	436
f 221 	436 	222
f 242 	315 	238
f 222 	437 	438
f 315 	242 	244
f 293 	192 	228
f 443 	231 	230
f 169 	151 	236
f 483 	499 	489
f 444 	234 	227
f 249 	340 	235
f 483 	482 	27
f 499 	483 	27
f 12 	340 	255
f 578 	478 	576
f 447 	241 	446
f 252 	9 	253
f 7 	253 	9
f 447 	448 	241
f 253 	7 	255
f 12 	255 	7
f 448 	449 	243
f 245 	449 	230
f 443 	230 	449
f 294 	284 	185
f 33 	9 	257
f 252 	257 	9
f 246 	453 	247
f 247 	453 	454
f 259 	43 	44
f 259 	44 	260
f 490 	488 	499
f 250 	248 	455
f 239 	47 	48
f 239 	48 	261
f 567 	486 	566
f 456 	251 	455
f 98 	565 	584
f 261 	48 	52
f 261 	52 	262
f 458 	256 	457
f 487 	568 	102
f 70 	33 	264
f 258 	256 	459
f 264 	33 	257
f 476 	491 	576
f 360 	496 	369
f 263 	130 	264
f 70 	264 	130
f 476 	576 	478
f 44 	130 	260
f 514 	508 	506
f 263 	260 	130
f 516 	510 	508
f 516 	508 	514
f 43 	259 	52
f 262 	52 	259
f 84 	582 	82
f 586 	412 	516
f 490 	513 	506
f 144 	267 	266
f 144 	266 	146
f 507 	291 	505
f 506 	513 	514
f 438 	224 	222
f 504 	291 	512
f 512 	291 	511
f 149 	233 	151
f 224 	438 	439
f 224 	439 	225
f 510 	516 	412
f 225 	439 	227
f 515 	291 	519
f 511 	291 	515
f 519 	291 	518
f 233 	149 	269
f 269 	149 	156
f 490 	499 	27
f 514 	27 	516
f 271 	161 	162
f 271 	162 	272
f 274 	166 	275
f 237 	234 	444
f 446 	240 	237
f 517 	525 	520
f 520 	525 	524
f 37 	41 	566
f 156 	164 	269
f 241 	240 	446
f 523 	525 	522
f 232 	236 	151
f 35 	39 	502
f 173 	377 	174
f 503 	502 	4
f 1 	4 	265
f 378 	180 	379
f 175 	379 	180
f 469 	502 	521
f 247 	454 	248
f 454 	455 	248
f 502 	265 	4
f 503 	35 	502
f 39 	45 	502
f 45 	521 	502
f 175 	182 	379
f 359 	379 	182
f 250 	455 	251
f 50 	13 	265
f 13 	10 	265
f 10 	1 	265
f 456 	457 	251
f 251 	457 	254
f 351 	359 	339
f 254 	457 	256
f 584 	582 	98
f 522 	525 	382
f 458 	459 	256
f 291 	461 	525
f 278 	226 	193
f 524 	525 	523
f 518 	291 	517
f 505 	291 	504
f 509 	51 	265
f 51 	50 	265
f 507 	509 	265
f 291 	507 	265
f 525 	517 	291
f 378 	380 	180
f 199 	180 	380
f 527 	526 	528
f 527 	528 	529
f 397 	390 	528
f 529 	528 	390
f 201 	381 	193
f 531 	530 	533
f 531 	533 	534
f 534 	533 	536
f 534 	536 	537
f 267 	144 	280
f 211 	280 	144
f 461 	291 	42
f 537 	536 	538
f 537 	538 	539
f 540 	541 	539
f 540 	539 	538
f 282 	213 	146
f 282 	146 	266
f 582 	480 	479
f 535 	502 	532
f 542 	543 	541
f 542 	541 	540
f 281 	217 	282
f 544 	545 	543
f 544 	543 	542
f 142 	461 	42
f 546 	547 	545
f 546 	545 	544
f 162 	217 	272
f 548 	549 	547
f 548 	547 	546
f 549 	548 	527
f 526 	527 	548
f 591 	550 	535
f 223 	289 	211
f 280 	211 	289
f 552 	553 	551
f 552 	551 	550
f 288 	226 	278
f 555 	556 	553
f 555 	553 	552
f 558 	559 	556
f 558 	556 	555
f 265 	502 	460
f 289 	223 	226
f 289 	226 	288
f 559 	558 	531
f 530 	531 	558
f 502 	418 	495
f 383 	229 	199
f 383 	199 	380
f 397 	528 	27
f 526 	27 	528
f 586 	516 	27
f 514 	513 	27
f 557 	502 	554
f 532 	502 	557
f 229 	383 	173
f 275 	166 	271
f 161 	271 	166
f 502 	168 	561
f 502 	561 	554
f 27 	526 	548
f 27 	548 	546
f 27 	546 	544
f 27 	544 	542
f 27 	542 	540
f 27 	540 	538
f 27 	538 	536
f 27 	536 	533
f 27 	533 	530
f 530 	558 	27
f 376 	381 	174
f 265 	460 	319
f 77 	168 	71
f 71 	168 	403
f 80 	168 	77
f 558 	555 	27
f 27 	555 	552
f 27 	552 	550
f 299 	298 	268
f 296 	268 	298
f 183 	265 	319
f 560 	168 	80
f 560 	561 	168
f 308 	273 	268
f 308 	268 	296
f 562 	563 	93
f 301 	277 	302
f 276 	302 	277
f 302 	276 	308
f 273 	308 	276
f 480 	501 	500
f 314 	270 	277
f 277 	301 	314
f 549 	527 	461
f 321 	279 	270
f 321 	270 	314
f 495 	46 	494
f 393 	525 	390
f 46 	495 	418
f 320 	283 	321
f 279 	321 	283
f 49 	525 	46
f 285 	328 	286
f 326 	286 	328
f 328 	285 	287
f 328 	287 	332
f 393 	472 	525
f 366 	110 	109
f 113 	110 	365
f 366 	365 	110
f 473 	467 	472
f 467 	525 	472
f 287 	283 	332
f 365 	115 	113
f 320 	332 	283
f 17 	374 	118
f 338 	292 	286
f 338 	286 	326
f 565 	98 	32
f 341 	295 	342
f 473 	489 	467
f 344 	303 	304
f 344 	304 	345
f 489 	488 	467
f 347 	329 	309
f 418 	49 	46
f 508 	214 	506
f 303 	344 	309
f 347 	309 	344
f 510 	412 	214
f 488 	506 	214
f 351 	339 	353
f 488 	214 	467
f 347 	346 	329
f 390 	525 	529
f 122 	118 	374
f 525 	467 	46
f 322 	334 	353
f 525 	461 	529
f 527 	529 	461
f 124 	122 	374
f 298 	299 	244
f 124 	5 	125
f 2 	8 	125
f 355 	329 	346
f 322 	353 	339
f 46 	568 	567
f 108 	368 	109
f 367 	366 	109
f 182 	339 	359
f 115 	365 	364
f 362 	349 	363
f 553 	460 	551
f 551 	502 	535
f 342 	297 	349
f 342 	349 	362
f 556 	460 	553
f 580 	82 	582
f 5 	124 	374
f 345 	304 	341
f 2 	125 	5
f 84 	98 	582
f 531 	460 	559
f 559 	460 	556
f 534 	460 	531
f 537 	460 	534
f 127 	125 	8
f 37 	566 	32
f 373 	358 	292
f 373 	292 	338
f 16 	131 	8
f 567 	566 	41
f 228 	562 	293
f 93 	293 	562
f 363 	350 	373
f 127 	8 	131
f 576 	73 	78
f 16 	368 	131
f 376 	174 	377
f 539 	541 	461
f 541 	543 	461
f 543 	545 	461
f 545 	547 	461
f 547 	549 	461
f 539 	460 	537
f 460 	539 	461
f 502 	551 	460
f 17 	118 	155
f 563 	564 	93
f 108 	131 	368
f 367 	109 	368
f 278 	193 	381
f 494 	486 	495
f 494 	41 	493
f 173 	383 	377
f 201 	174 	381
f 74 	369 	73
f 580 	578 	82
f 487 	486 	568
f 78 	73 	497
f 157 	102 	568
f 500 	498 	480
f 570 	387 	386
f 570 	386 	569
f 571 	388 	387
f 571 	387 	570
f 54 	126 	4
f 504 	59 	505
f 58 	505 	59
f 572 	389 	388
f 572 	388 	571
f 505 	58 	507
f 61 	507 	58
f 389 	572 	573
f 389 	573 	391
f 62 	63 	50
f 493 	492 	475
f 65 	66 	509
f 574 	392 	391
f 574 	391 	573
f 46 	467 	568
f 507 	61 	65
f 507 	65 	509
f 576 	562 	73
f 72 	512 	76
f 511 	76 	512
f 575 	394 	392
f 575 	392 	574
f 504 	512 	59
f 72 	59 	512
f 577 	395 	394
f 577 	394 	575
f 76 	511 	83
f 515 	83 	511
f 519 	85 	83
f 519 	83 	515
f 579 	396 	395
f 579 	395 	577
f 479 	578 	580
f 517 	53 	518
f 581 	398 	396
f 581 	396 	579
f 580 	582 	479
f 518 	88 	519
f 85 	519 	88
f 583 	400 	398
f 583 	398 	581
f 64 	53 	520
f 585 	403 	400
f 585 	400 	583
f 45 	170 	521
f 382 	67 	522
f 564 	563 	576
f 87 	564 	576
f 86 	564 	87
f 563 	562 	576
f 496 	497 	73
f 520 	524 	64
f 79 	64 	524
f 475 	486 	493
f 578 	576 	78
f 497 	498 	78
f 523 	81 	524
f 78 	82 	578
f 228 	73 	562
f 67 	81 	522
f 583 	581 	585
f 585 	581 	579
f 585 	579 	577
f 585 	577 	575
f 585 	575 	574
f 585 	574 	573
f 585 	573 	572
f 585 	572 	571
f 570 	106 	571
f 569 	589 	106
f 569 	106 	570
f 585 	571 	100
f 93 	564 	86
f 412 	586 	587
f 412 	587 	413
f 589 	414 	413
f 589 	413 	587
f 471 	588 	91
f 589 	569 	414
f 386 	414 	569
f 32 	501 	492
f 493 	37 	492
f 586 	27 	587
f 589 	587 	27
f 27 	106 	589
f 502 	495 	168
f 71 	403 	100
f 284 	294 	588
f 169 	236 	306
f 235 	306 	236
f 498 	82 	78
f 47 	239 	313
f 498 	500 	82
f 84 	82 	500
f 313 	238 	315
f 244 	331 	315
f 501 	98 	500
f 244 	299 	331
f 588 	294 	91
f 84 	500 	98
f 100 	403 	585
f 306 	235 	340
f 487 	168 	495
f 284 	588 	496
f 501 	32 	98
f 249 	255 	340
f 32 	492 	37
f 493 	41 	37
f 494 	46 	41
f 496 	73 	369
f 476 	496 	588
f 487 	495 	486
f 485 	484 	91
f 492 	501 	474
f 474 	475 	492
f 532 	557 	593
f 591 	535 	532
f 591 	532 	590
f 551 	535 	550
f 471 	476 	588
f 590 	593 	550
f 591 	590 	550
f 484 	471 	91
f 498 	479 	480
f 501 	480 	481
f 494 	493 	486
f 481 	474 	501
f 485 	491 	477
f 554 	561 	592
f 554 	592 	557
f 593 	557 	592
f 91 	491 	485
f 590 	532 	593
f 496 	476 	497
f 91 	93 	491
f 478 	479 	497
f 29 	550 	592
f 593 	592 	550
f 80 	27 	560
f 29 	561 	560
f 29 	560 	27
f 29 	592 	561
f 497 	476 	478
f 498 	497 	479
# 1190 faces

 #end of obj_0

