# Object Export From Tinkercad Server 2015

mtllib obj.mtl

o obj_0
v -127.7 		57.711 		7.931
v -127.7 		57.799 		7.8
v -127.7 		57.607 		8.05
v -127.7 		57.488 		8.155
v -135.7 		57.356 		8.243
v -135.7 		57.214 		8.313
v -135.7 		57.064 		8.364
v -135.7 		56.909 		8.395
v -135.7 		56.83 		8.4
v -135.7 		57.951 		7.353
v -135.7 		57.956 		7.274
v -135.7 		57.92 		7.508
v -135.7 		57.869 		7.658
v -135.7 		57.799 		7.8
v -135.7 		57.711 		7.931
v -135.7 		57.607 		8.05
v -135.7 		57.488 		8.155
v -127.7 		56.604 		8.395
v -127.7 		56.683 		8.4
v -127.7 		56.448 		8.364
v -127.7 		56.299 		8.313
v -127.7 		56.157 		8.243
v -127.7 		56.025 		8.155
v -127.7 		55.906 		8.05
v -127.7 		55.801 		7.931
v -127.7 		55.713 		7.8
v -127.7 		55.643 		7.658
v -127.7 		55.595 		7.514
v -135.7 		56.683 		8.4
v -135.7 		56.604 		8.395
v -135.7 		56.448 		8.364
v -135.7 		56.299 		8.313
v -135.7 		56.157 		8.243
v -135.7 		56.025 		8.155
v -135.7 		55.906 		8.05
v -135.7 		55.801 		7.931
v -135.7 		55.713 		7.8
v -135.7 		55.643 		7.658
v -135.7 		55.595 		7.514
v -135.7 		55.891 		6.118
v -135.7 		55.69 		6.601
v -135.7 		55.595 		6.7432
v -135.7 		55.806 		6.366
v -127.7 		55.891 		6.118
v -127.7 		55.595 		6.7432
v -127.7 		55.69 		6.601
v -127.7 		55.806 		6.366
v -135.7 		55.175 		4.011
v -135.7 		54.958 		3.866
v -135.7 		54.723 		3.75
v -135.7 		54.475 		3.666
v -135.7 		54.218 		3.615
v -135.7 		53.956 		3.597
v -135.7 		53.695 		3.615
v -135.7 		53.438 		3.666
v -135.7 		53.19 		3.75
v -135.7 		52.955 		3.866
v -135.7 		52.737 		4.011
v -135.7 		51.971 		5.861
v -135.7 		51.954 		5.6
v -135.7 		52.54 		4.184
v -135.7 		52.368 		4.381
v -135.7 		52.222 		4.599
v -135.7 		52.106 		4.833
v -135.7 		52.022 		5.081
v -135.7 		51.971 		5.338
v -135.7 		55.942 		5.861
v -135.7 		55.959 		5.6
v -135.7 		55.942 		5.338
v -135.7 		55.891 		5.081
v -135.7 		55.806 		4.833
v -135.7 		55.69 		4.599
v -135.7 		55.545 		4.381
v -135.7 		55.372 		4.184
v -127.7 		55.175 		4.011
v -127.7 		54.958 		3.866
v -127.7 		54.723 		3.75
v -127.7 		54.475 		3.666
v -127.7 		54.218 		3.615
v -127.7 		53.956 		3.597
v -127.7 		53.695 		3.615
v -127.7 		53.438 		3.666
v -127.7 		53.19 		3.75
v -127.7 		52.955 		3.866
v -127.7 		52.737 		4.011
v -127.7 		51.971 		5.861
v -127.7 		51.954 		5.6
v -127.7 		52.54 		4.184
v -127.7 		52.368 		4.381
v -127.7 		52.222 		4.599
v -127.7 		52.106 		4.833
v -127.7 		52.022 		5.081
v -127.7 		51.971 		5.338
v -127.7 		55.942 		5.861
v -127.7 		55.959 		5.6
v -127.7 		55.942 		5.338
v -127.7 		55.891 		5.081
v -127.7 		55.806 		4.833
v -127.7 		55.69 		4.599
v -127.7 		55.545 		4.381
v -127.7 		55.372 		4.184
v -125 		45.956 		0
v -125 		61.956 		0
v -126.5591 		61.9561 		1.316
v -126.1048 		61.9561 		1.316
v -125.1444 		61.956 		1.3168
v -125.001 		61.956 		1.3168
v -126.5653 		45.9559 		1.3231
v -125.0012 		45.956 		1.324
v -125.1515 		45.956 		1.324
v -126.114 		45.9562 		1.3268
v -125.0012 		45.9572 		1.3427
v -125.0011 		48.3744 		1.3407
v -125.0011 		61.9543 		1.3407
v -125.8891 		61.0659 		2.413
v -125.8891 		46.8451 		2.413
v -127.7 		57.956 		2.413
v -127.7 		49.956 		2.413
v -125.005 		61.95 		1.403
v -125.036 		61.919 		1.558
v -125.087 		61.868 		1.708
v -125.157 		61.798 		1.85
v -125.35 		61.606 		2.1
v -125.469 		61.487 		2.205
v -125.6 		61.355 		2.293
v -125.742 		61.213 		2.363
v -125.245 		61.71 		1.981
v -125.005 		45.961 		1.403
v -125.036 		45.992 		1.558
v -125.087 		46.043 		1.708
v -125.157 		46.113 		1.85
v -125.35 		46.305 		2.1
v -125.469 		46.424 		2.205
v -125.6 		46.556 		2.293
v -125.742 		46.698 		2.363
v -125.245 		46.201 		1.981
v -127.7 		51.756 		8.243
v -127.7 		51.614 		8.313
v -127.7 		51.464 		8.364
v -127.7 		51.309 		8.395
v -127.7 		51.23 		8.4
v -127.7 		52.318 		7.5139
v -127.7 		52.269 		7.658
v -127.7 		52.199 		7.8
v -127.7 		52.111 		7.931
v -127.7 		52.007 		8.05
v -127.7 		51.888 		8.155
v -127.7 		51.083 		8.4
v -127.7 		51.004 		8.395
v -127.7 		50.848 		8.364
v -127.7 		50.699 		8.313
v -127.7 		50.557 		8.243
v -127.7 		50.425 		8.155
v -127.7 		50.306 		8.05
v -127.7 		50.201 		7.931
v -127.7 		50.113 		7.8
v -127.7 		50.043 		7.658
v -127.7 		49.993 		7.508
v -127.7 		49.962 		7.353
v -127.7 		49.956 		7.2668
v -127.7 		52.022 		6.118
v -127.7 		52.106 		6.366
v -127.7 		52.222 		6.601
v -127.7 		52.318 		6.7437
v -127.7 		57.356 		8.243
v -127.7 		57.214 		8.313
v -127.7 		57.064 		8.364
v -127.7 		56.909 		8.395
v -127.7 		56.83 		8.4
v -127.7 		57.956 		7.274
v -127.7 		57.951 		7.353
v -127.7 		57.92 		7.508
v -127.7 		57.869 		7.658
v -171.7 		45.956 		0
v -171.7 		61.956 		0
v -148.149 		47.979 		2.413
v -148.149 		47.979 		1.931
v -148.959 		47.579 		1.931
v -148.959 		47.579 		2.413
v -149.814 		47.289 		1.931
v -149.814 		47.289 		2.413
v -171.35 		61.606 		2.1
v -171.231 		61.487 		2.205
v -171.1 		61.355 		2.293
v -170.958 		61.213 		2.363
v -170.8109 		61.0659 		2.413
v -153.386 		47.289 		1.931
v -146.719 		49.075 		1.931
v -146.719 		49.075 		2.413
v -147.398 		48.48 		1.931
v -147.398 		48.48 		2.413
v -145.223 		56.598 		1.931
v -145.223 		56.598 		2.413
v -144.933 		55.743 		1.931
v -144.933 		55.743 		2.413
v -144.757 		54.857 		1.931
v -144.757 		54.857 		2.413
v -144.698 		53.956 		1.931
v -144.698 		53.956 		2.413
v -144.757 		53.055 		1.931
v -144.757 		53.055 		2.413
v -144.933 		52.17 		1.931
v -144.933 		52.17 		2.413
v -145.223 		51.315 		1.931
v -145.223 		51.315 		2.413
v -145.622 		50.505 		1.931
v -145.622 		50.505 		2.413
v -146.124 		49.754 		1.931
v -146.124 		49.754 		2.413
v -147.398 		59.432 		1.931
v -147.398 		59.432 		2.413
v -146.719 		58.837 		1.931
v -146.719 		58.837 		2.413
v -146.124 		58.158 		1.931
v -146.124 		58.158 		2.413
v -145.622 		57.408 		1.931
v -145.622 		57.408 		2.413
v -171.5556 		61.956 		1.3168
v -170.5448 		61.9561 		1.316
v -154.241 		47.579 		1.931
v -154.241 		47.579 		2.413
v -155.051 		47.979 		1.931
v -155.051 		47.979 		2.413
v -155.802 		48.48 		1.931
v -155.802 		48.48 		2.413
v -156.481 		49.075 		1.931
v -156.481 		49.075 		2.413
v -157.076 		49.754 		1.931
v -157.076 		49.754 		2.413
v -157.578 		50.505 		1.931
v -157.578 		50.505 		2.413
v -157.977 		51.315 		1.931
v -157.977 		51.315 		2.413
v -158.267 		52.17 		1.931
v -158.267 		52.17 		2.413
v -158.443 		53.055 		1.931
v -158.443 		53.055 		2.413
v -158.503 		53.956 		1.931
v -158.503 		53.956 		2.413
v -158.443 		54.857 		1.931
v -158.443 		54.857 		2.413
v -158.267 		55.743 		1.931
v -158.267 		55.743 		2.413
v -157.977 		56.598 		1.931
v -157.977 		56.598 		2.413
v -157.578 		57.408 		1.931
v -157.578 		57.408 		2.413
v -157.076 		58.158 		1.931
v -157.076 		58.158 		2.413
v -156.481 		58.837 		1.931
v -156.481 		58.837 		2.413
v -155.802 		59.432 		1.931
v -155.802 		59.432 		2.413
v -135.7 		51.23 		8.4
v -135.7 		51.309 		8.395
v -135.7 		51.464 		8.364
v -135.7 		51.614 		8.313
v -135.7 		51.756 		8.243
v -135.7 		52.318 		7.5139
v -135.7 		52.007 		8.05
v -135.7 		52.111 		7.931
v -135.7 		52.199 		7.8
v -135.7 		52.269 		7.658
v -135.7 		51.888 		8.155
v -135.7 		50.557 		8.243
v -135.7 		50.699 		8.313
v -135.7 		50.848 		8.364
v -135.7 		51.004 		8.395
v -135.7 		51.083 		8.4
v -135.7 		49.956 		7.2668
v -135.7 		49.962 		7.353
v -135.7 		49.993 		7.508
v -135.7 		50.043 		7.658
v -135.7 		50.113 		7.8
v -135.7 		50.201 		7.931
v -135.7 		50.306 		8.05
v -135.7 		50.425 		8.155
v -135.7 		52.022 		6.118
v -135.7 		52.106 		6.366
v -135.7 		52.222 		6.601
v -135.7 		52.318 		6.7437
v -135.7 		57.956 		2.413
v -135.7 		49.956 		2.413
v -151.6 		60.859 		2.413
v -150.699 		60.8 		2.413
v -151.6 		60.859 		1.931
v -150.699 		60.8 		1.931
v -152.501 		60.8 		2.413
v -152.501 		60.8 		1.931
v -153.386 		60.624 		1.931
v -153.386 		60.624 		2.413
v -149.814 		60.624 		1.931
v -149.814 		60.624 		2.413
v -148.959 		60.333 		1.931
v -148.959 		60.333 		2.413
v -148.149 		59.934 		1.931
v -148.149 		59.934 		2.413
v -171.6992 		61.956 		1.3168
v -170.5367 		45.9559 		1.3231
v -171.5539 		45.956 		1.324
v -171.6978 		45.956 		1.324
v -171.6992 		48.3837 		1.336
v -171.6977 		45.9583 		1.3598
v -171.6992 		61.9547 		1.336
v -151.6 		47.054 		2.413
v -150.699 		47.113 		2.413
v -150.699 		47.113 		1.931
v -155.051 		59.934 		2.413
v -154.241 		60.333 		2.413
v -151.6 		47.054 		1.931
v -170.8109 		46.8451 		2.413
v -152.501 		47.113 		2.413
v -152.501 		47.113 		1.931
v -153.386 		47.289 		2.413
v -171.695 		61.95 		1.403
v -171.664 		61.919 		1.558
v -171.613 		61.868 		1.708
v -171.543 		61.798 		1.85
v -171.455 		61.71 		1.981
v -155.051 		59.934 		1.931
v -154.241 		60.333 		1.931
v -171.35 		46.305 		2.1
v -171.231 		46.424 		2.205
v -171.1 		46.556 		2.293
v -170.958 		46.698 		2.363
v -171.695 		45.961 		1.403
v -171.664 		45.992 		1.558
v -171.613 		46.043 		1.708
v -171.543 		46.113 		1.85
v -171.455 		46.201 		1.981
# 330 vertices

g group_0_15277357

usemtl color_15277357
s 0

f 169 	8 	9
f 3 	17 	4
f 4 	17 	5
f 2 	13 	14
f 15 	1 	14
f 1 	15 	3
f 16 	17 	3
f 166 	5 	6
f 166 	6 	167
f 7 	167 	6
f 167 	7 	8
f 2 	14 	1
f 16 	3 	15
f 35 	25 	24
f 29 	18 	19
f 18 	31 	20
f 31 	21 	20
f 22 	34 	23
f 24 	23 	34
f 26 	38 	27
f 18 	29 	30
f 30 	31 	18
f 21 	32 	22
f 22 	33 	34
f 37 	26 	25
f 37 	38 	26
f 28 	27 	38
f 39 	28 	38
f 21 	31 	32
f 33 	22 	32
f 35 	24 	34
f 36 	25 	35
f 37 	25 	36
f 44 	47 	40
f 46 	42 	41
f 43 	47 	41
f 46 	41 	47
f 42 	45 	39
f 45 	42 	46
f 43 	40 	47
f 28 	39 	45
f 48 	49 	75
f 80 	52 	53
f 83 	55 	56
f 83 	56 	84
f 57 	84 	56
f 84 	57 	58
f 86 	60 	59
f 66 	93 	65
f 44 	40 	67
f 70 	97 	69
f 98 	97 	71
f 70 	71 	97
f 98 	71 	72
f 73 	100 	72
f 100 	73 	74
f 75 	74 	48
f 49 	50 	77
f 77 	50 	51
f 80 	53 	54
f 84 	58 	85
f 85 	58 	61
f 65 	92 	64
f 93 	92 	65
f 93 	66 	60
f 44 	67 	94
f 68 	95 	67
f 98 	72 	99
f 99 	72 	100
f 100 	74 	101
f 49 	76 	75
f 76 	49 	77
f 77 	51 	78
f 52 	79 	51
f 78 	51 	79
f 79 	52 	80
f 80 	54 	81
f 55 	82 	54
f 81 	54 	82
f 82 	55 	83
f 86 	87 	60
f 88 	85 	61
f 62 	89 	88
f 62 	88 	61
f 89 	62 	90
f 63 	90 	62
f 90 	63 	91
f 64 	91 	63
f 92 	91 	64
f 93 	60 	87
f 94 	67 	95
f 69 	96 	68
f 95 	68 	96
f 96 	69 	97
f 101 	74 	75
f 104 	105 	103
f 103 	105 	106
f 104 	119 	105
f 103 	106 	107
f 109 	110 	102
f 108 	102 	111
f 102 	110 	111
f 112 	109 	113
f 102 	113 	109
f 107 	113 	103
f 114 	113 	107
f 102 	103 	113
f 117 	118 	115
f 116 	115 	118
f 114 	106 	119
f 107 	106 	114
f 106 	105 	119
f 112 	128 	110
f 112 	110 	109
f 110 	128 	111
f 108 	111 	128
f 113 	128 	112
f 133 	132 	124
f 128 	113 	119
f 119 	120 	128
f 120 	129 	128
f 122 	127 	136
f 127 	123 	136
f 123 	124 	132
f 135 	125 	126
f 116 	135 	115
f 129 	120 	121
f 131 	121 	122
f 123 	132 	136
f 133 	124 	125
f 126 	115 	135
f 114 	119 	113
f 130 	129 	121
f 130 	121 	131
f 122 	136 	131
f 125 	134 	133
f 134 	125 	135
f 139 	140 	157
f 141 	157 	140
f 145 	158 	144
f 146 	158 	145
f 147 	158 	146
f 138 	158 	137
f 137 	158 	147
f 139 	157 	138
f 150 	151 	149
f 148 	149 	151
f 148 	151 	152
f 152 	153 	148
f 153 	154 	148
f 154 	155 	148
f 155 	156 	148
f 156 	157 	148
f 141 	148 	157
f 158 	138 	157
f 159 	142 	158
f 163 	164 	160
f 163 	160 	162
f 162 	160 	161
f 142 	160 	164
f 144 	158 	143
f 160 	142 	159
f 143 	158 	142
f 4 	165 	170
f 165 	166 	170
f 166 	167 	170
f 167 	168 	170
f 169 	170 	168
f 170 	171 	172
f 170 	172 	173
f 170 	173 	2
f 170 	2 	1
f 170 	1 	3
f 4 	170 	3
f 23 	24 	170
f 24 	25 	170
f 21 	170 	20
f 18 	20 	170
f 22 	170 	21
f 23 	170 	22
f 19 	18 	170
f 19 	170 	169
f 25 	26 	170
f 26 	27 	170
f 28 	170 	27
f 45 	170 	28
f 46 	170 	45
f 47 	170 	46
f 44 	170 	47
f 76 	117 	75
f 77 	117 	76
f 78 	117 	77
f 118 	117 	80
f 84 	85 	118
f 161 	160 	86
f 89 	118 	88
f 85 	88 	118
f 90 	118 	89
f 91 	118 	90
f 92 	93 	118
f 160 	118 	93
f 87 	160 	93
f 170 	44 	94
f 95 	170 	94
f 100 	117 	99
f 99 	117 	98
f 101 	117 	100
f 75 	117 	101
f 170 	95 	96
f 97 	117 	96
f 98 	117 	97
f 170 	96 	117
f 79 	80 	117
f 81 	118 	80
f 82 	118 	81
f 84 	118 	83
f 82 	83 	118
f 78 	79 	117
f 91 	92 	118
f 86 	160 	87
f 176 	177 	178
f 176 	178 	179
f 180 	181 	179
f 180 	179 	178
f 177 	187 	178
f 180 	178 	187
f 220 	187 	177
f 189 	188 	190
f 189 	190 	191
f 177 	191 	190
f 193 	192 	194
f 193 	194 	195
f 195 	194 	196
f 195 	196 	197
f 197 	196 	198
f 197 	198 	199
f 200 	201 	199
f 200 	199 	198
f 202 	203 	201
f 202 	201 	200
f 204 	205 	203
f 204 	203 	202
f 206 	207 	205
f 206 	205 	204
f 208 	209 	207
f 208 	207 	206
f 209 	208 	189
f 188 	189 	208
f 212 	213 	211
f 212 	211 	210
f 214 	215 	213
f 214 	213 	212
f 216 	217 	215
f 216 	215 	214
f 192 	193 	217
f 192 	217 	216
f 208 	222 	188
f 190 	188 	222
f 204 	228 	206
f 202 	228 	204
f 200 	228 	202
f 198 	228 	200
f 196 	228 	198
f 194 	228 	196
f 192 	228 	194
f 216 	228 	192
f 121 	317 	318
f 214 	228 	216
f 210 	252 	212
f 218 	219 	175
f 221 	220 	222
f 221 	222 	223
f 220 	177 	222
f 177 	190 	222
f 222 	224 	225
f 222 	225 	223
f 225 	224 	226
f 225 	226 	227
f 228 	227 	226
f 227 	228 	229
f 230 	231 	229
f 230 	229 	228
f 232 	233 	231
f 232 	231 	230
f 234 	235 	233
f 234 	233 	232
f 236 	237 	235
f 236 	235 	234
f 237 	236 	238
f 237 	238 	239
f 240 	241 	239
f 240 	239 	238
f 242 	243 	241
f 242 	241 	240
f 244 	245 	243
f 244 	243 	242
f 246 	247 	245
f 246 	245 	244
f 248 	249 	247
f 248 	247 	246
f 250 	251 	249
f 250 	249 	248
f 252 	253 	251
f 252 	251 	250
f 208 	228 	226
f 208 	226 	224
f 208 	224 	222
f 248 	214 	250
f 246 	214 	248
f 244 	214 	246
f 242 	214 	244
f 240 	214 	242
f 238 	214 	240
f 236 	214 	238
f 234 	214 	236
f 232 	214 	234
f 230 	214 	232
f 228 	214 	230
f 208 	206 	228
f 252 	250 	214
f 214 	212 	252
f 256 	270 	255
f 257 	270 	256
f 258 	270 	257
f 254 	270 	269
f 255 	270 	254
f 261 	262 	270
f 263 	270 	262
f 259 	270 	263
f 270 	258 	264
f 264 	260 	270
f 266 	267 	270
f 268 	270 	267
f 269 	270 	268
f 270 	271 	272
f 270 	272 	273
f 270 	273 	274
f 270 	274 	275
f 270 	275 	276
f 265 	270 	277
f 266 	270 	265
f 276 	277 	270
f 279 	270 	280
f 260 	261 	270
f 280 	270 	281
f 278 	270 	279
f 259 	281 	270
f 7 	38 	8
f 5 	17 	38
f 16 	38 	17
f 15 	39 	16
f 14 	39 	15
f 13 	39 	14
f 12 	39 	13
f 10 	39 	12
f 11 	39 	10
f 9 	38 	29
f 8 	38 	9
f 32 	31 	38
f 30 	38 	31
f 29 	38 	30
f 7 	6 	38
f 38 	37 	36
f 38 	36 	35
f 38 	35 	34
f 34 	33 	38
f 33 	32 	38
f 40 	11 	67
f 42 	11 	41
f 38 	16 	39
f 39 	11 	42
f 40 	43 	11
f 41 	11 	43
f 6 	5 	38
f 49 	48 	282
f 51 	50 	282
f 50 	49 	282
f 51 	282 	52
f 283 	55 	54
f 56 	55 	283
f 57 	56 	283
f 60 	270 	59
f 59 	270 	278
f 61 	58 	283
f 62 	61 	283
f 63 	62 	283
f 270 	66 	283
f 63 	283 	64
f 64 	283 	65
f 65 	283 	66
f 68 	11 	69
f 70 	282 	71
f 71 	282 	72
f 72 	282 	73
f 73 	282 	74
f 74 	282 	48
f 11 	282 	69
f 67 	11 	68
f 70 	69 	282
f 58 	57 	283
f 283 	54 	53
f 52 	282 	53
f 283 	53 	282
f 60 	66 	270
f 254 	148 	141
f 148 	254 	269
f 169 	9 	19
f 29 	19 	9
f 174 	175 	102
f 103 	102 	175
f 219 	104 	175
f 104 	103 	175
f 219 	315 	104
f 184 	185 	125
f 319 	127 	122
f 127 	319 	123
f 122 	121 	318
f 124 	183 	125
f 119 	104 	315
f 316 	120 	119
f 316 	121 	120
f 324 	323 	134
f 286 	284 	289
f 284 	286 	285
f 287 	285 	286
f 293 	285 	287
f 289 	210 	286
f 289 	284 	288
f 290 	289 	291
f 288 	291 	289
f 292 	293 	287
f 294 	295 	293
f 294 	293 	292
f 218 	315 	219
f 296 	297 	295
f 296 	295 	294
f 118 	283 	116
f 296 	210 	297
f 211 	297 	210
f 175 	298 	218
f 210 	296 	294
f 210 	294 	292
f 210 	292 	287
f 287 	286 	210
f 290 	210 	289
f 283 	118 	160
f 270 	283 	160
f 282 	117 	115
f 102 	108 	174
f 299 	174 	108
f 174 	299 	300
f 117 	282 	170
f 11 	170 	282
f 257 	138 	137
f 128 	326 	108
f 257 	139 	138
f 299 	108 	326
f 139 	255 	140
f 255 	254 	141
f 255 	141 	140
f 293 	295 	115
f 144 	262 	145
f 261 	260 	145
f 284 	115 	186
f 285 	115 	284
f 284 	186 	288
f 288 	186 	291
f 139 	256 	255
f 285 	293 	115
f 297 	115 	295
f 262 	144 	143
f 261 	145 	262
f 146 	145 	260
f 264 	147 	260
f 146 	260 	147
f 264 	258 	147
f 137 	147 	258
f 258 	257 	137
f 139 	257 	256
f 129 	327 	128
f 142 	259 	143
f 262 	143 	263
f 263 	143 	259
f 158 	271 	159
f 271 	160 	159
f 158 	272 	271
f 300 	301 	174
f 330 	329 	136
f 174 	301 	302
f 303 	302 	301
f 304 	298 	302
f 174 	302 	175
f 175 	302 	298
f 253 	186 	251
f 180 	306 	181
f 307 	306 	180
f 187 	313 	180
f 326 	128 	327
f 309 	186 	308
f 308 	186 	253
f 291 	186 	309
f 186 	249 	251
f 307 	310 	305
f 305 	306 	307
f 239 	241 	186
f 237 	239 	311
f 227 	229 	311
f 223 	311 	221
f 217 	282 	215
f 211 	282 	297
f 225 	311 	223
f 193 	282 	217
f 227 	311 	225
f 231 	233 	311
f 233 	235 	311
f 235 	237 	311
f 229 	231 	311
f 249 	186 	247
f 186 	311 	239
f 243 	186 	241
f 243 	245 	186
f 245 	247 	186
f 119 	315 	316
f 122 	318 	319
f 121 	316 	317
f 186 	115 	126
f 124 	123 	183
f 184 	125 	183
f 126 	125 	185
f 186 	126 	185
f 310 	313 	312
f 312 	313 	187
f 312 	187 	314
f 310 	180 	313
f 307 	180 	310
f 312 	305 	310
f 220 	221 	187
f 314 	187 	221
f 177 	176 	191
f 148 	269 	149
f 268 	267 	149
f 154 	153 	276
f 276 	155 	154
f 155 	274 	156
f 274 	157 	156
f 150 	149 	267
f 150 	267 	151
f 266 	151 	267
f 266 	265 	152
f 266 	152 	151
f 277 	153 	265
f 152 	265 	153
f 277 	276 	153
f 155 	276 	275
f 275 	274 	155
f 274 	273 	157
f 273 	158 	157
f 268 	149 	269
f 272 	158 	273
f 160 	271 	270
f 161 	86 	278
f 59 	278 	86
f 278 	279 	161
f 142 	281 	259
f 279 	162 	161
f 162 	279 	163
f 280 	163 	279
f 281 	164 	163
f 281 	163 	280
f 142 	164 	281
f 165 	4 	5
f 5 	166 	165
f 167 	8 	168
f 8 	169 	168
f 171 	170 	10
f 11 	10 	170
f 172 	171 	12
f 10 	12 	171
f 12 	13 	173
f 12 	173 	172
f 13 	2 	173
f 311 	116 	305
f 306 	305 	116
f 181 	306 	116
f 305 	312 	311
f 314 	311 	312
f 311 	314 	221
f 179 	116 	176
f 116 	283 	176
f 181 	116 	179
f 189 	191 	283
f 205 	207 	283
f 191 	176 	283
f 195 	282 	193
f 205 	283 	203
f 215 	282 	213
f 213 	282 	211
f 115 	297 	282
f 197 	282 	195
f 282 	197 	199
f 201 	283 	199
f 201 	203 	283
f 209 	189 	283
f 207 	209 	283
f 282 	199 	283
f 182 	123 	319
f 182 	183 	123
f 304 	315 	218
f 304 	218 	298
f 317 	316 	328
f 327 	328 	316
f 328 	329 	317
f 318 	317 	329
f 319 	318 	330
f 318 	329 	330
f 319 	330 	182
f 253 	252 	308
f 320 	308 	252
f 321 	309 	308
f 321 	308 	320
f 290 	291 	309
f 290 	309 	321
f 252 	210 	320
f 321 	320 	210
f 290 	321 	210
f 182 	323 	183
f 183 	323 	184
f 325 	185 	184
f 186 	185 	325
f 326 	327 	315
f 184 	324 	325
f 304 	302 	315
f 316 	315 	327
f 326 	315 	302
f 182 	330 	322
f 182 	322 	323
f 184 	323 	324
f 302 	303 	326
f 186 	325 	311
f 303 	300 	326
f 301 	300 	303
f 300 	299 	326
f 322 	132 	323
f 133 	134 	323
f 135 	325 	134
f 311 	325 	116
f 129 	130 	327
f 328 	327 	130
f 322 	330 	132
f 136 	132 	330
f 133 	323 	132
f 324 	134 	325
f 135 	116 	325
f 131 	329 	130
f 328 	130 	329
f 131 	136 	329
# 656 faces

 #end of obj_0

